<?xml version="1.0" encoding="UTF-8"?>
<svg version="1.1" xmlns="http://www.w3.org/2000/svg" width="128" height="128">
<path d="M0 0 C0.85247314 -0.00700928 1.70494629 -0.01401855 2.58325195 -0.02124023 C5.3995832 -0.03883756 8.21490864 -0.02719147 11.03125 -0.01367188 C12.98893425 -0.01636629 14.9466172 -0.02024829 16.90429688 -0.02526855 C21.00664007 -0.03116595 25.10863482 -0.02259281 29.2109375 -0.00390625 C34.47045628 0.01888337 39.72915864 0.00576159 44.98864746 -0.01819611 C49.0309871 -0.03264751 53.07313305 -0.0280511 57.11547852 -0.01768494 C59.05476986 -0.01501583 60.99407877 -0.01829385 62.93334961 -0.02760315 C65.6435405 -0.03775789 68.35240775 -0.02228315 71.0625 0 C71.86469971 -0.00809692 72.66689941 -0.01619385 73.4934082 -0.02453613 C76.83059518 0.02631901 79.14515119 0.28516382 82.02819824 2.02062988 C84.17992939 5.59519827 84.08972046 8.93493567 84.04882812 12.98632812 C84.0558374 13.83880127 84.06284668 14.69127441 84.07006836 15.56958008 C84.08766568 18.38591132 84.0760196 21.20123676 84.0625 24.01757812 C84.06519442 25.97526238 84.06907642 27.93294533 84.07409668 29.890625 C84.07999408 33.99296819 84.07142093 38.09496294 84.05273438 42.19726562 C84.02994475 47.45678441 84.04306653 52.71548676 84.06702423 57.97497559 C84.08147563 62.01731523 84.07687923 66.05946118 84.06651306 70.10180664 C84.06384396 72.04109799 84.06712197 73.9804069 84.07643127 75.91967773 C84.08658602 78.62986863 84.07111128 81.33873587 84.04882812 84.04882812 C84.05692505 84.85102783 84.06502197 85.65322754 84.07336426 86.47973633 C84.02250912 89.81692331 83.76366431 92.13147931 82.02819824 95.01452637 C78.45362985 97.16625751 75.11389246 97.07604858 71.0625 97.03515625 C70.21002686 97.04216553 69.35755371 97.0491748 68.47924805 97.05639648 C65.6629168 97.07399381 62.84759136 97.06234772 60.03125 97.04882812 C58.07356575 97.05152254 56.1158828 97.05540454 54.15820312 97.0604248 C50.05585993 97.0663222 45.95386518 97.05774906 41.8515625 97.0390625 C36.59204372 97.01627288 31.33334136 97.02939466 26.07385254 97.05335236 C22.0315129 97.06780376 17.98936695 97.06320735 13.94702148 97.05284119 C12.00773014 97.05017208 10.06842123 97.0534501 8.12915039 97.0627594 C5.4189595 97.07291414 2.71009225 97.0574394 0 97.03515625 C-1.20329956 97.04730164 -1.20329956 97.04730164 -2.4309082 97.05969238 C-5.76809518 97.00883724 -8.08265119 96.74999243 -10.96569824 95.01452637 C-13.11742939 91.43995798 -13.02722046 88.10022058 -12.98632812 84.04882812 C-12.9933374 83.19635498 -13.00034668 82.34388184 -13.00756836 81.46557617 C-13.02516568 78.64924493 -13.0135196 75.83391949 -13 73.01757812 C-13.00269442 71.05989387 -13.00657642 69.10221092 -13.01159668 67.14453125 C-13.01749408 63.04218806 -13.00892093 58.94019331 -12.99023438 54.83789062 C-12.96744475 49.57837184 -12.98056653 44.31966949 -13.00452423 39.06018066 C-13.01897563 35.01784102 -13.01437923 30.97569507 -13.00401306 26.93334961 C-13.00134396 24.99405826 -13.00462197 23.05474935 -13.01393127 21.11547852 C-13.02408602 18.40528762 -13.00861128 15.69642038 -12.98632812 12.98632812 C-12.99442505 12.18412842 -13.00252197 11.38192871 -13.01086426 10.55541992 C-12.96000912 7.21823294 -12.70116431 4.90367694 -10.96569824 2.02062988 C-7.39112985 -0.13110126 -4.05139246 -0.04089233 0 0 Z M10.53125 27.51757812 C9.1492946 28.69078272 9.1492946 28.69078272 9.15625 31.95507812 C9.25762086 38.22880818 12.06455349 43.72276997 16.17578125 48.38085938 C22.20088236 53.8619333 29.36759235 56.74360773 37.53125 56.51757812 C46.59486754 54.86093504 53.07223454 51.042167 58.53125 43.51757812 C61.38842397 38.19732315 61.8409338 34.40157036 61.53125 28.51757812 C60.21125 28.51757812 58.89125 28.51757812 57.53125 28.51757812 C57.3353125 29.37480469 57.139375 30.23203125 56.9375 31.11523438 C54.47966255 40.51222498 51.37141478 44.98274155 43.15625 49.95507812 C36.47955542 51.38579839 30.34395033 51.31883105 24.34765625 47.83007812 C17.98156378 43.23006292 15.79789891 38.40683185 14.26953125 30.77539062 C13.90408203 29.65777344 13.90408203 29.65777344 13.53125 28.51757812 C12.54125 28.18757813 11.55125 27.85757813 10.53125 27.51757812 Z " fill="#FFFFFF" transform="translate(28.46875,15.482421875)"/>
</svg>
