<?xml version="1.0" encoding="UTF-8"?>
<svg version="1.1" xmlns="http://www.w3.org/2000/svg" width="128" height="128">
<path d="M0 0 C2.701875 -0.061875 5.40375 -0.12375 8.1875 -0.1875 C9.02949951 -0.21481201 9.87149902 -0.24212402 10.73901367 -0.27026367 C15.3371113 -0.32109252 18.25550842 0.0412146 22 3 C24.42360237 5.98910959 25.04034706 7.31410005 24.8125 11.1875 C24 14 24 14 22 16 C22.495 16.515625 22.99 17.03125 23.5 17.5625 C25.57700386 20.93763128 25.47919182 23.09800946 25 27 C23.20437595 29.75329021 21.94745078 31.52627461 19 33 C17.55151418 33.08342159 16.09929131 33.10732861 14.6484375 33.09765625 C13.49867432 33.09390991 13.49867432 33.09390991 12.32568359 33.09008789 C10.86509521 33.07643188 10.86509521 33.07643188 9.375 33.0625 C6.28125 33.041875 3.1875 33.02125 0 33 C0 22.11 0 11.22 0 0 Z M7 7 C7 8.98 7 10.96 7 13 C9.97 13 12.94 13 16 13 C16.38218767 11.34385343 16.71395102 9.67542976 17 8 C15.99163938 6.76732652 15.99163938 6.76732652 13.93359375 6.90234375 C12.69802734 6.91974609 12.69802734 6.91974609 11.4375 6.9375 C10.19806641 6.95103516 10.19806641 6.95103516 8.93359375 6.96484375 C7.97646484 6.98224609 7.97646484 6.98224609 7 7 Z M7 20 C7 22.31 7 24.62 7 27 C12.36090593 27.53673893 12.36090593 27.53673893 17 25.5 C17.33 25.005 17.66 24.51 18 24 C17.34 22.68 16.68 21.36 16 20 C13.03 20 10.06 20 7 20 Z " fill="#FFFFFF" transform="translate(59,52)"/>
<path d="M0 0 C2.701875 -0.061875 5.40375 -0.12375 8.1875 -0.1875 C9.02949951 -0.21481201 9.87149902 -0.24212402 10.73901367 -0.27026367 C15.3371113 -0.32109252 18.25550842 0.0412146 22 3 C24.39991339 5.95989319 25.04252084 7.29131931 24.8125 11.125 C24 14 24 14 22 17 C22.495 17.53625 22.99 18.0725 23.5 18.625 C25.45380713 21.71852796 25.51518691 23.39369166 25 27 C23.20006226 29.69990662 21.916227 31.5418865 19 33 C17.55151418 33.08342159 16.09929131 33.10732861 14.6484375 33.09765625 C13.49867432 33.09390991 13.49867432 33.09390991 12.32568359 33.09008789 C10.86509521 33.07643188 10.86509521 33.07643188 9.375 33.0625 C6.28125 33.041875 3.1875 33.02125 0 33 C0 22.11 0 11.22 0 0 Z M7 7 C7 8.98 7 10.96 7 13 C9.97 13 12.94 13 16 13 C16.38218767 11.34385343 16.71395102 9.67542976 17 8 C15.99163938 6.76732652 15.99163938 6.76732652 13.93359375 6.90234375 C12.69802734 6.91974609 12.69802734 6.91974609 11.4375 6.9375 C10.19806641 6.95103516 10.19806641 6.95103516 8.93359375 6.96484375 C7.97646484 6.98224609 7.97646484 6.98224609 7 7 Z M7 20 C7 22.31 7 24.62 7 27 C8.27875 27.020625 9.5575 27.04125 10.875 27.0625 C11.59429688 27.07410156 12.31359375 27.08570313 13.0546875 27.09765625 C15.08185404 27.12649242 15.08185404 27.12649242 17 26 C17.042721 24.33388095 17.04063832 22.66617115 17 21 C15.99163938 19.76732652 15.99163938 19.76732652 13.93359375 19.90234375 C12.69802734 19.91974609 12.69802734 19.91974609 11.4375 19.9375 C10.19806641 19.95103516 10.19806641 19.95103516 8.93359375 19.96484375 C7.97646484 19.98224609 7.97646484 19.98224609 7 20 Z " fill="#FFFFFF" transform="translate(1,52)"/>
<path d="M0 0 C2.64 0 5.28 0 8 0 C8.84114171 1.43294498 9.67265687 2.87154405 10.5 4.3125 C10.9640625 5.11300781 11.428125 5.91351563 11.90625 6.73828125 C13 9 13 9 13 12 C13.66 12 14.32 12 15 12 C15.0825 11.319375 15.165 10.63875 15.25 9.9375 C16.22332528 6.1253093 17.95807455 3.35929671 20 0 C22.64 0 25.28 0 28 0 C26.56035549 3.94997941 24.62120776 7.29171337 22.4375 10.875 C18.36515254 18.25084924 17.91893901 24.62755806 18 33 C15.36 33 12.72 33 10 33 C10.03222656 32.1028125 10.06445312 31.205625 10.09765625 30.28125 C10.00341434 20.14500895 7.2959412 13.70469681 1.93359375 5.16796875 C0 2 0 2 0 0 Z " fill="#FFFFFF" transform="translate(28,52)"/>
<path d="M0 0 C8.25 0 16.5 0 25 0 C25 2.31 25 4.62 25 7 C22.36 7.33 19.72 7.66 17 8 C17 16.25 17 24.5 17 33 C14.36 33 11.72 33 9 33 C9 24.42 9 15.84 9 7 C6.03 7 3.06 7 0 7 C0 4.69 0 2.38 0 0 Z " fill="#FFFFFF" transform="translate(102,52)"/>
<path d="M0 0 C2.64 0 5.28 0 8 0 C8 10.89 8 21.78 8 33 C5.36 33 2.72 33 0 33 C0 22.11 0 11.22 0 0 Z " fill="#FFFFFF" transform="translate(90,43)"/>
</svg>
