<?xml version="1.0" encoding="UTF-8"?>
<svg version="1.1" xmlns="http://www.w3.org/2000/svg" width="128" height="128">
<path d="M0 0 C1.31291016 0.54333984 1.31291016 0.54333984 2.65234375 1.09765625 C19.78683541 8.88606155 29.79248924 22.98638874 37.16796875 39.63671875 C39.34102763 45.97225661 39.32840435 52.55393924 39.4375 59.1875 C39.46005859 60.1266626 39.48261719 61.0658252 39.50585938 62.03344727 C39.48038791 69.23104575 38.00014277 74.52332449 33.25390625 80.0234375 C27.38911285 84.7098544 23.03649473 86.49307703 15.4296875 86.3125 C10.44536674 85.67142981 7.45502025 82.65769663 4.25 79.0625 C0.30093523 73.68738407 -0.3471363 69.16519758 -0.625 62.6875 C-0.66367188 61.94693359 -0.70234375 61.20636719 -0.7421875 60.44335938 C-0.83581705 58.62928691 -0.91896851 56.81467884 -1 55 C-1.39268066 55.66008057 -1.78536133 56.32016113 -2.18994141 57.00024414 C-3.99475828 60.02515541 -5.80977634 63.04382324 -7.625 66.0625 C-8.24246094 67.10083984 -8.85992187 68.13917969 -9.49609375 69.20898438 C-18.16619318 83.58309659 -18.16619318 83.58309659 -23 86 C-26.3125 86.375 -26.3125 86.375 -30 86 C-32.63016161 83.8272578 -34.47336894 82.05326212 -36 79 C-36.15266612 77.26131256 -36.24932596 75.51752499 -36.31640625 73.7734375 C-36.35830078 72.7421875 -36.40019531 71.7109375 -36.44335938 70.6484375 C-36.48267578 69.56820312 -36.52199219 68.48796875 -36.5625 67.375 C-36.60568359 66.28703125 -36.64886719 65.1990625 -36.69335938 64.078125 C-36.7996453 61.3855483 -36.90168057 58.69287747 -37 56 C-37.30067383 56.47606689 -37.60134766 56.95213379 -37.91113281 57.44262695 C-38.8270479 58.89282583 -39.74325593 60.34283972 -40.65966797 61.79272461 C-41.72850324 63.48622305 -42.79520298 65.18107102 -43.85986328 66.87719727 C-46.70462449 71.40234649 -49.58204499 75.89881566 -52.5390625 80.3515625 C-53.09819336 81.20451904 -53.65732422 82.05747559 -54.23339844 82.9362793 C-55.31499048 84.58424337 -56.40915418 86.22403488 -57.51660156 87.85473633 C-58.2470166 88.97658325 -58.2470166 88.97658325 -58.9921875 90.12109375 C-59.42901855 90.7752124 -59.86584961 91.42933105 -60.31591797 92.10327148 C-61.23995064 94.0379077 -61.23995064 94.0379077 -60.24584961 96.13330078 C-54.72243646 104.40922022 -42.27278287 108.72609294 -32.9609375 110.6171875 C-18.18855008 112.527074 -4.6091846 109.37906667 7.2890625 100.2421875 C7.97742188 99.68789062 8.66578125 99.13359375 9.375 98.5625 C12.64517469 96.00788501 12.64517469 96.00788501 15.8125 95.9375 C18.21848707 97.10612229 19.52737397 97.75230763 21 100 C21.6875 102.75 21.6875 102.75 21 106 C13.52123004 115.26856106 -0.33067809 122.36470727 -12 124 C-32.32490791 125.81671012 -48.38322332 122.76908554 -64.65234375 109.90234375 C-76.4409777 99.85098217 -85.92926082 85.08283318 -87.21899414 69.32421875 C-87.6982534 57.44579305 -88.02774373 45.98322588 -83 35 C-82.2884375 33.39511719 -82.2884375 33.39511719 -81.5625 31.7578125 C-73.88244843 16.06539944 -61.28290934 4.65977741 -44.9375 -1.5 C-30.82800726 -6.19591746 -13.65081382 -5.92247257 0 0 Z M-62.84375 25.3203125 C-72.74672523 37.62727084 -75.93793819 51.46642715 -75 67 C-74.0070526 73.02616355 -72.98444011 78.24545802 -69 83 C-61.31209239 71.23638254 -53.81373991 59.36106823 -46.3828125 47.43359375 C-45.8043457 46.50788574 -45.22587891 45.58217773 -44.62988281 44.62841797 C-43.59080929 42.95276405 -42.56286679 41.27012001 -41.54980469 39.57861328 C-41.11829102 38.86302246 -40.68677734 38.14743164 -40.2421875 37.41015625 C-39.69473877 36.48601929 -39.69473877 36.48601929 -39.13623047 35.54321289 C-38 34 -38 34 -35 32 C-31.36872733 31.53643328 -29.68032131 31.50354931 -26.6875 33.6875 C-23.68102298 37.80748702 -23.8778804 42.20972178 -23.90234375 47.17578125 C-23.90556641 48.33271484 -23.90878906 49.48964844 -23.91210938 50.68164062 C-23.92467773 52.47891602 -23.92467773 52.47891602 -23.9375 54.3125 C-23.94201172 55.53001953 -23.94652344 56.74753906 -23.95117188 58.00195312 C-23.96293422 61.00135226 -23.97937174 64.00065089 -24 67 C-21.47531063 64.68881601 -19.83741077 62.27067494 -18.109375 59.32421875 C-17.56410156 58.41349609 -17.01882812 57.50277344 -16.45703125 56.56445312 C-15.3282153 54.66199787 -14.2057009 52.75578801 -13.08984375 50.84570312 C-9.80677564 45.39058176 -6.54021975 40.38058732 -1 37 C2.1875 36.5625 2.1875 36.5625 5 37 C6.11375 37.0928125 6.11375 37.0928125 7.25 37.1875 C9 38 9 38 10.08789062 40.21679688 C11.02543464 43.07761106 11.28182536 45.34360773 11.34375 48.34375 C11.37339844 49.34277344 11.40304688 50.34179688 11.43359375 51.37109375 C11.47786458 53.45703125 11.52213542 55.54296875 11.56640625 57.62890625 C11.59605469 58.62792969 11.62570313 59.62695312 11.65625 60.65625 C11.68428711 62.01459961 11.68428711 62.01459961 11.71289062 63.40039062 C12.15301093 67.38542546 13.15603982 70.15603982 16 73 C18.91538029 73.50042146 18.91538029 73.50042146 22 73 C24.84780619 70.76793569 25.84997666 69.45007001 27 66 C28.01539758 52.42882074 25.41443625 39.26640541 16.95703125 28.3671875 C6.31200467 16.09151141 -5.33459506 9.51837833 -21.6015625 7.7109375 C-37.46193804 7.14265043 -52.10425055 13.84857445 -62.84375 25.3203125 Z " fill="#FFFFFF" transform="translate(88,4)"/>
</svg>
