<?xml version="1.0" encoding="UTF-8"?>
<svg version="1.1" xmlns="http://www.w3.org/2000/svg" width="128" height="128">
<path d="M0 0 C2.17941569 1.01089605 4.29436587 2.10118454 6.41235352 3.23486328 C7.1484082 3.61642578 7.88446289 3.99798828 8.64282227 4.39111328 C10.44667692 5.32818063 12.2428261 6.28005535 14.03735352 7.23486328 C14.03735352 7.89486328 14.03735352 8.55486328 14.03735352 9.23486328 C14.73344727 9.50427734 15.42954102 9.77369141 16.14672852 10.05126953 C19.25163039 11.32260098 22.26734832 12.71071052 25.28735352 14.17236328 C26.34438477 14.67638672 27.40141602 15.18041016 28.49047852 15.69970703 C31.03735352 17.23486328 31.03735352 17.23486328 32.03735352 20.23486328 C32.69735352 20.27611328 33.35735352 20.31736328 34.03735352 20.35986328 C38.60575857 21.69231476 41.98683897 23.51159592 45.03735352 27.23486328 C46.26507252 31.72061404 46.20653821 36.10521838 46.17016602 40.73486328 C46.18876175 42.69842773 46.18876175 42.69842773 46.20773315 44.70166016 C46.22849377 47.46605048 46.21949834 50.22837896 46.19018555 52.99267578 C46.15577777 56.52547889 46.20281265 60.05178469 46.27316475 63.5838623 C46.32780205 66.96790745 46.307638 70.350398 46.29516602 73.73486328 C46.32168243 74.9975 46.34819885 76.26013672 46.3755188 77.56103516 C46.19440518 86.09731519 46.19440518 86.09731519 42.83221436 89.40283203 C39.17856165 91.68234867 36.38724657 93.23486328 32.03735352 93.23486328 C32.03735352 93.89486328 32.03735352 94.55486328 32.03735352 95.23486328 C29.58165177 96.57325061 27.12305435 97.9057256 24.66235352 99.23486328 C23.6143457 99.80720703 23.6143457 99.80720703 22.54516602 100.39111328 C17.26391602 103.23486328 17.26391602 103.23486328 15.03735352 103.23486328 C15.03735352 110.49486328 15.03735352 117.75486328 15.03735352 125.23486328 C10.38942335 124.30527725 6.859483 122.82271126 2.72485352 120.67236328 C2.07967773 120.34300781 1.43450195 120.01365234 0.76977539 119.67431641 C-0.81049876 118.86662073 -2.38696753 118.05148715 -3.96264648 117.23486328 C-3.96264648 116.57486328 -3.96264648 115.91486328 -3.96264648 115.23486328 C-4.97391602 114.85201172 -4.97391602 114.85201172 -6.00561523 114.46142578 C-9.51397405 113.00617523 -12.889432 111.32538493 -16.27514648 109.60986328 C-16.92032227 109.28501953 -17.56549805 108.96017578 -18.23022461 108.62548828 C-19.8086219 107.83044372 -21.38576343 107.03290694 -22.96264648 106.23486328 C-22.96264648 105.57486328 -22.96264648 104.91486328 -22.96264648 104.23486328 C-23.64713867 103.97962891 -24.33163086 103.72439453 -25.03686523 103.46142578 C-28.41226374 102.0463722 -31.56238686 100.36227762 -34.77514648 98.60986328 C-35.37262695 98.28501953 -35.97010742 97.96017578 -36.58569336 97.62548828 C-38.04601783 96.83107177 -39.5045214 96.03330952 -40.96264648 95.23486328 C-40.96264648 94.57486328 -40.96264648 93.91486328 -40.96264648 93.23486328 C-42.26202148 92.86361328 -42.26202148 92.86361328 -43.58764648 92.48486328 C-48.03724374 90.8368643 -51.606063 88.59144676 -54.96264648 85.23486328 C-55.20988464 82.8059082 -55.20988464 82.8059082 -55.20556641 79.71533203 C-55.20864304 78.56073486 -55.21171967 77.4061377 -55.21488953 76.21655273 C-55.20770401 74.96447021 -55.20051849 73.7123877 -55.19311523 72.42236328 C-55.19265701 71.14256592 -55.19219879 69.86276855 -55.19172668 68.54418945 C-55.19016168 65.83392928 -55.18187102 63.12380117 -55.16845703 60.41357422 C-55.15146712 56.93644148 -55.1476427 53.45945393 -55.14840221 49.98228455 C-55.14806517 46.67062461 -55.13922792 43.35901247 -55.13061523 40.04736328 C-55.12950241 38.79528076 -55.12838959 37.54319824 -55.12724304 36.25317383 C-55.12086319 35.09857666 -55.11448334 33.94397949 -55.10791016 32.75439453 C-55.10409836 31.73450439 -55.10028656 30.71461426 -55.09635925 29.66381836 C-54.96264648 27.23486328 -54.96264648 27.23486328 -53.96264648 25.23486328 C-51.22968004 23.8861844 -48.43535415 22.73327191 -45.62670898 21.55126953 C-43.0043358 20.43507928 -43.0043358 20.43507928 -41.51733398 18.77587891 C-39.8967563 17.16955254 -38.45173815 16.28814151 -36.42358398 15.26220703 C-35.76100586 14.91996094 -35.09842773 14.57771484 -34.41577148 14.22509766 C-33.02256304 13.51932759 -31.62933364 12.81359888 -30.23608398 12.10791016 C-26.45357176 10.37372081 -26.45357176 10.37372081 -23.96264648 7.23486328 C-21.42017018 5.77447897 -18.89233707 4.4219358 -16.27514648 3.10986328 C-15.56680664 2.73732422 -14.8584668 2.36478516 -14.12866211 1.98095703 C-9.25646283 -0.4753872 -5.387231 -2.10020922 0 0 Z M-23.96264648 37.23486328 C-24.62931315 39.73486328 -24.62931315 39.73486328 -23.96264648 42.23486328 C-22.442464 44.67181802 -22.442464 44.67181802 -19.96264648 46.23486328 C-17.054835 46.53776031 -14.86445942 46.56971365 -12.11108398 45.54736328 C-7.42145834 44.86523591 -2.85662646 48.90749175 1.03735352 51.23486328 C1.6909082 51.59193359 2.34446289 51.94900391 3.01782227 52.31689453 C7.02068234 54.63954173 7.85734889 56.87792311 9.03735352 61.23486328 C10.55288505 63.53653003 10.55288505 63.53653003 12.03735352 65.23486328 C15.46965799 64.97092827 15.46965799 64.97092827 19.03735352 64.23486328 C21.31470361 61.41976335 21.31470361 61.41976335 21.03735352 58.23486328 C21.69735352 57.90486328 22.35735352 57.57486328 23.03735352 57.23486328 C21.41395547 55.52602323 19.74416299 53.86039611 18.03735352 52.23486328 C17.37735352 52.23486328 16.71735352 52.23486328 16.03735352 52.23486328 C15.54235352 51.24486328 15.54235352 51.24486328 15.03735352 50.23486328 C15.03735352 50.89486328 15.03735352 51.55486328 15.03735352 52.23486328 C12.06735352 52.23486328 9.09735352 52.23486328 6.03735352 52.23486328 C6.03735352 51.57486328 6.03735352 50.91486328 6.03735352 50.23486328 C3.91502373 49.0630981 1.78977561 47.89731544 -0.33764648 46.73486328 C-0.94092773 46.40099609 -1.54420898 46.06712891 -2.16577148 45.72314453 C-5.37679425 43.8471239 -5.37679425 43.8471239 -8.96264648 43.23486328 C-8.85952148 42.51298828 -8.75639648 41.79111328 -8.65014648 41.04736328 C-8.74320845 38.02725479 -8.74320845 38.02725479 -11.08764648 35.42236328 C-13.78345418 33.02939461 -13.78345418 33.02939461 -17.02514648 32.67236328 C-20.64060698 33.3646855 -21.85489951 34.2353772 -23.96264648 37.23486328 Z M5.03735352 64.23486328 C3.03673826 65.30516328 1.08454437 66.46688173 -0.83764648 67.67236328 C-6.77836593 71.21039927 -11.43779965 71.77928333 -18.28295898 70.99267578 C-19.16725586 71.07259766 -20.05155273 71.15251953 -20.96264648 71.23486328 C-23.08691386 73.88797546 -23.96264648 75.38198065 -23.96264648 78.79736328 C-22.59989856 82.11906134 -21.03671292 83.41836948 -17.96264648 85.23486328 C-15.21140395 85.10336502 -15.21140395 85.10336502 -12.96264648 84.23486328 C-12.96264648 83.57486328 -12.96264648 82.91486328 -12.96264648 82.23486328 C-11.97264648 81.90486328 -10.98264648 81.57486328 -9.96264648 81.23486328 C-9.19808065 79.18966133 -9.19808065 79.18966133 -8.71264648 76.79736328 C-7.95874023 74.31689453 -7.95874023 74.31689453 -6.96264648 72.23486328 C-3.77514648 70.98486328 -3.77514648 70.98486328 0.03735352 70.23486328 C2.81459008 68.72971759 5.42689321 67.01133237 8.03735352 65.23486328 C7.04735352 64.90486328 6.05735352 64.57486328 5.03735352 64.23486328 Z " fill="#FEFEFE" transform="translate(68.962646484375,1.76513671875)"/>
</svg>
