<?xml version="1.0" encoding="UTF-8"?>
<svg version="1.1" xmlns="http://www.w3.org/2000/svg" width="128" height="128">
<path d="M0 0 C0.86560547 0.01353516 1.73121094 0.02707031 2.62304688 0.04101562 C4.72814174 0.0759067 6.83290974 0.12969335 8.9375 0.1875 C8.51597656 0.66960938 8.09445313 1.15171875 7.66015625 1.6484375 C7.11230469 2.28007812 6.56445312 2.91171875 6 3.5625 C5.18208984 4.50222656 5.18208984 4.50222656 4.34765625 5.4609375 C2.86791376 7.14382334 2.86791376 7.14382334 1.9375 9.1875 C2.845 9.31125 3.7525 9.435 4.6875 9.5625 C7.52720323 10.10859677 9.46340591 10.76013803 11.9375 12.1875 C11.9375 12.8475 11.9375 13.5075 11.9375 14.1875 C11.34582031 14.26226562 10.75414063 14.33703125 10.14453125 14.4140625 C5.85339954 15.12808442 3.33821187 15.86856606 -0.125 18.625 C-2.73772002 22.32104295 -2.76684894 26.21522438 -2.5390625 30.62109375 C-2.18411705 33.42904729 -2.18411705 33.42904729 -0.0625 36.3125 C3.66044127 38.63933829 6.5549165 39.48826553 10.9375 39.1875 C15.0933069 37.69768243 17.81128494 36.10421195 19.9375 32.1875 C20.65795367 29.03631675 20.65795367 29.03631675 20.9375 26.1875 C24.87298431 29.24843224 27.61866787 31.67865974 29.9375 36.1875 C31.82141785 32.92204239 32.43037967 29.90638239 32.9375 26.1875 C39.11206106 31.50448314 41.84957278 37.67708689 42.8125 45.75 C43.1224763 50.64073712 42.42891558 54.5377926 40.9375 59.1875 C46.8765617 56.47744272 51.52607989 54.01249075 55.9375 49.1875 C56.5975 49.1875 57.2575 49.1875 57.9375 49.1875 C58.65117211 65.91914611 55.87205228 79.34443277 44.87109375 92.6953125 C34.73218596 103.3964853 21.44834935 110.48905873 6.58984375 111.390625 C-11.17096728 111.61473618 -25.57484657 106.50229821 -38.5546875 93.9765625 C-49.15235947 82.19036658 -53.47895418 68.6606108 -53.64819336 53.04785156 C-53.74679915 48.37493984 -54.56486071 45.15219927 -57.0625 41.1875 C-59.13940578 40.22705898 -59.13940578 40.22705898 -61.0625 40.1875 C-61.0625 39.1975 -61.0625 38.2075 -61.0625 37.1875 C-59.5078125 35.77734375 -59.5078125 35.77734375 -57.1875 34.125 C-52.58048985 30.62080106 -48.63874621 26.76946512 -44.63012695 22.59619141 C-32.00955048 9.47972585 -18.97688302 -0.57416481 0 0 Z M-27.6875 10.1875 C-28.80125 10.8475 -29.915 11.5075 -31.0625 12.1875 C-31.0625 12.8475 -31.0625 13.5075 -31.0625 14.1875 C-31.63484375 14.435 -32.2071875 14.6825 -32.796875 14.9375 C-35.41260611 16.38066199 -37.21023456 18.06966222 -39.3125 20.1875 C-40.01890625 20.88875 -40.7253125 21.59 -41.453125 22.3125 C-43.27960399 24.02860768 -43.27960399 24.02860768 -43.0625 26.1875 C-43.7225 26.1875 -44.3825 26.1875 -45.0625 26.1875 C-46.05088433 28.2247203 -47.02782252 30.26749607 -48 32.3125 C-48.54527344 33.44945313 -49.09054688 34.58640625 -49.65234375 35.7578125 C-51.25317653 39.65125068 -52.1204194 43.16032116 -52 47.375 C-50.33516872 50.59367381 -48.48639775 51.04620075 -45.0625 52.1875 C-39.67224218 52.95753683 -34.4838629 53.46209941 -29.546875 50.86328125 C-23.30442728 45.71904192 -21.13800406 40.10283253 -20.0625 32.1875 C-19.94602113 29.54911826 -19.87250257 26.94979041 -19.875 24.3125 C-19.87435547 23.60867187 -19.87371094 22.90484375 -19.87304688 22.1796875 C-19.92395643 17.1812953 -20.48739129 12.91282614 -22.0625 8.1875 C-24.52551423 8.1875 -25.58313278 8.94046757 -27.6875 10.1875 Z " fill="#FFFFFF" transform="translate(65.0625,8.8125)"/>
<path d="M0 0 C2.47359354 0.95752008 3.73064878 1.49496645 5 3.875 C5 6 5 6 3.3125 8.3125 C1 10 1 10 -1.125 10 C-3.50503355 8.73064878 -4.04247992 7.47359354 -5 5 C-3.35 3.35 -1.7 1.7 0 0 Z " fill="#FFFFFF" transform="translate(28,37)"/>
</svg>
