<?xml version="1.0" encoding="UTF-8"?>
<svg version="1.1" xmlns="http://www.w3.org/2000/svg" width="128" height="128">
<path d="M0 0 C1.22753746 -0.01073296 1.22753746 -0.01073296 2.47987366 -0.02168274 C4.20361244 -0.02943636 5.92744996 -0.02449715 7.65112305 -0.00756836 C10.27517788 0.01164569 12.89392129 -0.02773849 15.51757812 -0.07226562 C17.19922188 -0.07255606 18.88087044 -0.06941416 20.5625 -0.0625 C21.33875229 -0.07778244 22.11500458 -0.09306488 22.91477966 -0.10881042 C28.22306807 0.00357 31.07731408 1.37280891 34.89476013 5.06809998 C36.80693617 7.21483723 38.24768632 9.37379861 39.6015625 11.91015625 C40.4073877 13.38826782 40.4073877 13.38826782 41.22949219 14.89624023 C41.78411133 15.94497314 42.33873047 16.99370605 42.91015625 18.07421875 C44.13334354 20.32404502 45.35866116 22.57271418 46.5859375 24.8203125 C47.20678223 25.9635498 47.82762695 27.10678711 48.46728516 28.28466797 C51.40994186 33.62821466 54.50251362 38.88054354 57.59765625 44.13671875 C58.75191547 46.11683007 59.90557387 48.09729176 61.05859375 50.078125 C63.16174264 53.68625126 65.29370775 57.27452318 67.44921875 60.8515625 C68.37451835 62.42529915 69.29904744 63.9994892 70.22265625 65.57421875 C70.64579102 66.25669678 71.06892578 66.9391748 71.50488281 67.64233398 C74.56229813 72.93556556 75.57591169 77.64852404 74.34765625 83.69921875 C72.52755808 88.19139129 70.18985481 92.28426988 67.72265625 96.44921875 C67.10519531 97.54621094 66.48773438 98.64320312 65.8515625 99.7734375 C57.8476459 113.67497685 57.8476459 113.67497685 52.41599274 115.26450348 C50.15870576 115.49209273 47.96811992 115.53316946 45.69946289 115.50732422 C44.42754341 115.52791397 44.42754341 115.52791397 43.12992859 115.54891968 C40.33853385 115.58539901 37.54939346 115.57779244 34.7578125 115.56640625 C32.81016817 115.57553294 30.86253029 115.58614501 28.91490173 115.59817505 C24.83696291 115.6160257 20.75980766 115.61120605 16.68188477 115.59130859 C11.46457841 115.568328 6.24997926 115.60874988 1.0330286 115.66714287 C-2.98809385 115.70389783 -7.00856925 115.70327661 -11.02981758 115.69186783 C-12.9527116 115.69156176 -14.87564998 115.70362181 -16.79838371 115.72845078 C-31.75746055 115.8944147 -31.75746055 115.8944147 -36.32833862 113.01133728 C-38.15086233 110.9891535 -39.41555005 109.1151643 -40.65234375 106.69921875 C-41.20180664 105.88042236 -41.75126953 105.06162598 -42.31738281 104.21801758 C-42.68057617 103.53763428 -43.04376953 102.85725098 -43.41796875 102.15625 C-43.83304688 101.39248047 -44.248125 100.62871094 -44.67578125 99.84179688 C-45.08054687 99.07287109 -45.4853125 98.30394531 -45.90234375 97.51171875 C-46.7402653 95.95539514 -47.57879055 94.39939638 -48.41796875 92.84375 C-48.80146484 92.11365723 -49.18496094 91.38356445 -49.58007812 90.63134766 C-50.67727426 88.5552303 -50.67727426 88.5552303 -52.44921875 86.2734375 C-54.42366686 82.04888781 -54.44567518 78.26449515 -53.65234375 73.69921875 C-52.01190765 69.57406877 -49.81939985 65.86831975 -47.52734375 62.07421875 C-46.89787842 60.99317871 -46.26841309 59.91213867 -45.61987305 58.79833984 C-44.30294554 56.54173224 -42.97655937 54.29061992 -41.64111328 52.04492188 C-39.7374027 48.84231325 -37.85986302 45.62607225 -35.9921875 42.40234375 C-33.67007855 38.39534832 -31.33359706 34.39740502 -28.984375 30.40625 C-26.79402203 26.67587436 -24.64697717 22.92598755 -22.5390625 19.1484375 C-22.05010498 18.27944824 -21.56114746 17.41045898 -21.05737305 16.51513672 C-20.15445953 14.90636605 -19.26059097 13.29246695 -18.37817383 11.67236328 C-17.77138794 10.59704346 -17.77138794 10.59704346 -17.15234375 9.5 C-16.81203125 8.88294189 -16.47171875 8.26588379 -16.12109375 7.63012695 C-11.3615598 1.37295374 -7.59731788 -0.06817684 0 0 Z M9.34765625 38.69921875 C9.06680176 39.21605225 8.78594727 39.73288574 8.49658203 40.26538086 C2.9538665 50.44801262 -2.64330606 60.57606599 -8.65380859 70.49194336 C-10.88232196 73.85732628 -10.88232196 73.85732628 -11.65234375 77.69921875 C3.19765625 77.69921875 18.04765625 77.69921875 33.34765625 77.69921875 C30.70765625 73.07921875 28.06765625 68.45921875 25.34765625 63.69921875 C23.59080833 60.55679049 21.83797785 57.41318928 20.09765625 54.26171875 C17.21736654 49.0525872 14.31262179 43.86070693 11.34765625 38.69921875 C10.68765625 38.69921875 10.02765625 38.69921875 9.34765625 38.69921875 Z " fill="#FFFFFF" transform="translate(53.65234375,6.30078125)"/>
</svg>
