<?xml version="1.0" encoding="UTF-8"?>
<svg version="1.1" xmlns="http://www.w3.org/2000/svg" width="128" height="128">
<path d="M0 0 C0.7734375 -0.00515625 1.546875 -0.0103125 2.34375 -0.015625 C4.5 0.25 4.5 0.25 7.5 2.25 C8.93648208 7.72658795 8.93648208 7.72658795 8.5 10.25 C4.31620029 15.67714149 -1.84393579 18.67858967 -7.6875 22.0625 C-8.69748047 22.65998047 -9.70746094 23.25746094 -10.74804688 23.87304688 C-18.22638393 28.25 -18.22638393 28.25 -20.5 28.25 C-20.61618764 32.16641711 -20.68724654 36.08239101 -20.75 40 C-20.78351562 41.11117187 -20.81703125 42.22234375 -20.8515625 43.3671875 C-20.86445312 44.43710938 -20.87734375 45.50703125 -20.890625 46.609375 C-20.91157227 47.59389648 -20.93251953 48.57841797 -20.95410156 49.59277344 C-20.3680045 53.02238657 -19.16649079 54.08163514 -16.5 56.25 C-13.93763548 58.03618609 -11.22131829 59.53175846 -8.5 61.0625 C-7.7884375 61.48208984 -7.076875 61.90167969 -6.34375 62.33398438 C-5.6528125 62.72521484 -4.961875 63.11644531 -4.25 63.51953125 C-3.62609375 63.87635986 -3.0021875 64.23318848 -2.359375 64.60083008 C0.6418958 65.64867397 2.61983422 64.67258411 5.39111328 63.34204102 C6.34606689 62.80341431 6.34606689 62.80341431 7.3203125 62.25390625 C8.02027344 61.86009766 8.72023437 61.46628906 9.44140625 61.06054688 C10.16199219 60.64869141 10.88257813 60.23683594 11.625 59.8125 C12.35332031 59.40451172 13.08164063 58.99652344 13.83203125 58.57617188 C17.92892941 56.27263514 17.92892941 56.27263514 21.5 53.25 C21.80059943 50.88490639 21.99515012 48.50558119 22.125 46.125 C22.19976562 44.84367187 22.27453125 43.56234375 22.3515625 42.2421875 C22.40054688 41.25476563 22.44953125 40.26734375 22.5 39.25 C21.49839844 39.8275 20.49679688 40.405 19.46484375 41 C18.12283014 41.75077685 16.78035751 42.50073361 15.4375 43.25 C14.78072266 43.6315625 14.12394531 44.013125 13.44726562 44.40625 C8.97607799 46.87311215 5.73165328 47.81978402 0.5 47.25 C-1.9375 45.75 -1.9375 45.75 -3.5 43.25 C-4.10921535 40.44531045 -4.36557371 38.00263191 -3.5 35.25 C1.76177456 30.64690379 7.81999283 27.43210084 13.875 24 C14.98617187 23.3503125 16.09734375 22.700625 17.2421875 22.03125 C18.325 21.41765625 19.4078125 20.8040625 20.5234375 20.171875 C21.50231934 19.61081055 22.48120117 19.04974609 23.48974609 18.47167969 C27.86573573 16.69573061 31.46893593 16.45740979 35.89990234 18.18652344 C38.51581742 21.55999219 38.11036972 25.11338749 38.1015625 29.265625 C38.11013275 30.15481628 38.118703 31.04400757 38.12753296 31.96014404 C38.13902123 33.84302365 38.14001867 35.72599203 38.13134766 37.60888672 C38.1250516 40.47649924 38.17183693 43.33993326 38.22265625 46.20703125 C38.22720515 48.03905732 38.22860787 49.87109443 38.2265625 51.703125 C38.24498199 52.55440979 38.26340149 53.40569458 38.28237915 54.28277588 C38.19749308 59.80647804 37.04757643 62.82728162 33.15908813 66.79269409 C28.98930633 70.45533716 24.19661983 72.98819269 19.375 75.6875 C17.77785156 76.64172852 17.77785156 76.64172852 16.1484375 77.61523438 C8.93164062 81.69219912 2.78945565 84.13456104 -5.5 82.25 C-9.81909124 80.43835882 -13.77075182 78.23331493 -17.72119141 75.74365234 C-19.50909369 74.61928119 -21.31900756 73.54021284 -23.13671875 72.46484375 C-33.49959894 66.17077969 -33.49959894 66.17077969 -36.5 60.25 C-37.0388241 57.34164877 -37.0618377 54.5144418 -37.03125 51.5625 C-37.0350769 50.74177002 -37.03890381 49.92104004 -37.04284668 49.07543945 C-37.04555765 47.34748094 -37.03825364 45.61948083 -37.02148438 43.89160156 C-37.00006121 41.2575265 -37.02131182 38.62617846 -37.046875 35.9921875 C-37.04423158 34.30728569 -37.03910629 32.62238557 -37.03125 30.9375 C-37.03934692 30.15608643 -37.04744385 29.37467285 -37.05578613 28.56958008 C-36.96723893 23.36594684 -36.02540585 20.31222649 -32.5 16.25 C-29.79858398 14.31542969 -29.79858398 14.31542969 -26.74609375 12.671875 C-25.64458984 12.06859375 -24.54308594 11.4653125 -23.40820312 10.84375 C-22.26287109 10.2353125 -21.11753906 9.626875 -19.9375 9 C-17.66502031 7.76625892 -15.39286949 6.53191184 -13.12109375 5.296875 C-12.1148999 4.75901367 -11.10870605 4.22115234 -10.07202148 3.66699219 C-3.37512129 -0.02250081 -3.37512129 -0.02250081 0 0 Z " fill="#FFFFFF" transform="translate(63.5,22.75)"/>
</svg>
