<?xml version="1.0" encoding="UTF-8"?>
<svg version="1.1" xmlns="http://www.w3.org/2000/svg" width="128" height="128">
<path d="M0 0 C2.12548828 1.09716797 2.12548828 1.09716797 4.1953125 2.5546875 C5.36126953 3.37199341 5.36126953 3.37199341 6.55078125 4.20581055 C10.78733753 7.30932452 14.96715908 10.47947069 19.125 13.6875 C20.9710003 15.09551615 22.81735693 16.50306524 24.6640625 17.91015625 C27.97021513 20.43557459 31.2557914 22.98361825 34.5234375 25.55859375 C35.84859286 26.58120294 37.17408859 27.60337128 38.5 28.625 C39.09184082 29.10412842 39.68368164 29.58325684 40.29345703 30.0769043 C42.11819922 31.53216857 42.11819922 31.53216857 45 33 C50.0157205 32.29747237 54.26293025 27.85147975 58.125 24.75 C64.77523115 19.49307187 71.48766771 14.34104388 78.3125 9.3125 C79.1060791 8.72500977 79.8996582 8.13751953 80.71728516 7.53222656 C88.0269575 2.16037963 92.65865011 -1.12342429 102 0 C106.29309057 1.7355047 108.00884653 3.8769712 110 8 C110.2946628 10.77818408 110.43076494 13.33143078 110.41992188 16.10742188 C110.42839142 16.9096669 110.43686096 17.71191193 110.44558716 18.53846741 C110.46892684 21.18205754 110.46998019 23.82506477 110.46875 26.46875 C110.47585249 28.31050855 110.48355162 30.15226488 110.49182129 31.99401855 C110.50525844 35.85072994 110.5068379 39.70723662 110.50097656 43.56396484 C110.49507561 48.50397869 110.52569167 53.4430114 110.56609344 58.38283539 C110.59195087 62.18501061 110.59484976 65.9869488 110.59120178 69.78919983 C110.5928943 71.61046315 110.60254955 73.43173727 110.62034607 75.25291443 C110.64250219 77.80013661 110.63285309 80.34536233 110.61523438 82.89257812 C110.62849762 83.64285782 110.64176086 84.39313751 110.65542603 85.16615295 C110.5920496 89.11288685 110.12570182 90.8417109 107.64045715 93.97123718 C104.48047723 96.39916894 102.98345269 96.5893193 99.04296875 96.48828125 C98.04031982 96.47579346 97.0376709 96.46330566 96.00463867 96.45043945 C94.11515503 96.38215942 94.11515503 96.38215942 92.1875 96.3125 C88.165625 96.209375 84.14375 96.10625 80 96 C79.67 80.49 79.34 64.98 79 49 C75.761875 51.475 72.52375 53.95 69.1875 56.5 C67.25468624 57.96717393 65.32125705 59.43353821 63.38671875 60.8984375 C60.34280728 63.20674141 57.31555704 65.52828597 54.33203125 67.9140625 C53.39746094 68.64367187 52.46289062 69.37328125 51.5 70.125 C50.7265625 70.74632813 49.953125 71.36765625 49.15625 72.0078125 C47 73 47 73 44.61767578 72.24804688 C42.09185857 71.04379603 40.14184453 69.76421046 37.9609375 68.0234375 C37.21457031 67.43433594 36.46820313 66.84523438 35.69921875 66.23828125 C34.93222656 65.62339844 34.16523437 65.00851563 33.375 64.375 C26.69885784 59.06416941 19.91033174 54.02569581 13 49 C12.67 64.51 12.34 80.02 12 96 C7.978125 96.0825 3.95625 96.165 -0.1875 96.25 C-1.44715576 96.28641602 -2.70681152 96.32283203 -4.00463867 96.36035156 C-5.50861206 96.37533691 -5.50861206 96.37533691 -7.04296875 96.390625 C-8.06414795 96.41157227 -9.08532715 96.43251953 -10.13745117 96.45410156 C-13.92116858 95.85387006 -15.3574564 94.77405985 -18 92 C-18.494227 89.1081386 -18.66544816 86.80382965 -18.61523438 83.91430664 C-18.62078339 83.10245407 -18.6263324 82.2906015 -18.63204956 81.45414734 C-18.64385392 78.77221524 -18.61956186 76.09197002 -18.59375 73.41015625 C-18.59203887 71.54455136 -18.5921046 69.67894407 -18.59387207 67.81333923 C-18.59221832 63.90340164 -18.57351203 59.99403704 -18.54199219 56.08422852 C-18.50234187 51.07598694 -18.49794341 46.06849693 -18.50545502 41.06012821 C-18.50852709 37.20732252 -18.49639529 33.35468533 -18.47932434 29.5019207 C-18.47229949 27.65557348 -18.46916918 25.80920715 -18.47001648 23.96284676 C-18.46821558 21.37991067 -18.44680836 18.797869 -18.41992188 16.21508789 C-18.42285248 15.45388641 -18.42578308 14.69268494 -18.42880249 13.90841675 C-18.35696106 9.42769817 -17.73200726 6.57952985 -15 3 C-10.58510912 -0.87975259 -5.56762496 -0.92121511 0 0 Z " fill="#FFFFFF" transform="translate(18,16)"/>
</svg>
