<?xml version="1.0" encoding="UTF-8"?>
<svg version="1.1" xmlns="http://www.w3.org/2000/svg" width="128" height="128">
<path d="M0 0 C8.84876857 7.53843903 17.15358096 17.65483168 18.31787109 29.67944336 C19.11415802 50.41427222 11.74136657 62.97079297 -0.75 78.9375 C-10.51523106 91.43201252 -19.09470382 104.87715586 -24.875 119.6875 C-26.525 119.6875 -28.175 119.6875 -29.875 119.6875 C-30.349375 118.511875 -30.82375 117.33625 -31.3125 116.125 C-37.49385153 102.28744816 -46.58297314 89.70217966 -55.89453125 77.81640625 C-67.88084242 62.42347912 -75.51312168 48.63323293 -73.875 28.6875 C-71.52420714 16.23962696 -64.06923766 6.02295299 -53.875 -1.3125 C-36.87967336 -11.24989481 -16.35147015 -11.96181373 0 0 Z M-41.25 25.4375 C-44.61184849 29.1657625 -45.79431154 32.84827473 -45.9375 37.88671875 C-45.62381238 43.66053158 -43.85634785 47.51332334 -39.875 51.6875 C-35.58323482 55.36615587 -30.3753472 55.83383162 -24.875 55.6875 C-19.6930132 54.07343854 -14.748905 51.8179382 -11.8671875 47.00390625 C-9.42808914 41.54340227 -9.38241241 36.44194145 -10.875 30.6875 C-12.95714508 25.60319225 -15.93776779 23.36640582 -20.9375 21.25 C-28.49448621 18.46707288 -35.33991272 20.01991999 -41.25 25.4375 Z " fill="#FFFFFF" transform="translate(91.875,8.3125)"/>
</svg>
