<?xml version="1.0" encoding="UTF-8"?>
<svg version="1.1" xmlns="http://www.w3.org/2000/svg" width="128" height="128">
<path d="M0 0 C0.66 0 1.32 0 2 0 C0.53889018 3.29160134 -1.44769904 6.09828166 -3.52978516 9.02441406 C-10.91583535 19.52842301 -15.34644851 29.90097954 -14 43 C-13.68869761 44.73326839 -13.35474855 46.46259944 -13 48.1875 C-10.29672315 61.91936283 -11.16664026 75.84590178 -18.875 87.875 C-19.89698227 89.26469302 -20.93779396 90.64080436 -22 92 C-22.43957031 92.61359375 -22.87914063 93.2271875 -23.33203125 93.859375 C-29.57811009 101.9954777 -39.98891738 108.02581918 -50 110 C-60.77908428 111.06509006 -71.17997306 110.98581128 -81 106 C-82.20462891 105.42765625 -82.20462891 105.42765625 -83.43359375 104.84375 C-85.30812015 103.93410114 -87.15771136 102.97328457 -89 102 C-89 101.34 -89 100.68 -89 100 C-86.82076747 98.9572327 -84.63456196 97.94142598 -82.4375 96.9375 C-81.82841797 96.64294922 -81.21933594 96.34839844 -80.59179688 96.04492188 C-75.9070717 93.93803489 -72.96279735 94.00964133 -68 95 C-55.96944949 95.74807705 -46.81492623 95.17163698 -37.1875 87.375 C-31.09212901 81.6140653 -27.27223487 74.19778671 -26.83203125 65.79296875 C-26.77138848 56.70847983 -26.77138848 56.70847983 -29 48 C-32.35409868 47.59750816 -33.77295945 47.85551965 -36.6640625 49.6953125 C-37.64117187 50.49710938 -38.61828125 51.29890625 -39.625 52.125 C-40.76635421 53.04270137 -41.90971204 53.95791445 -43.0546875 54.87109375 C-43.67827148 55.37108887 -44.30185547 55.87108398 -44.94433594 56.38623047 C-48.80624413 59.417966 -52.78533429 62.29230695 -56.75 65.1875 C-62.31509155 69.25230638 -67.79795244 73.37868761 -73.16113281 77.70825195 C-75 79 -75 79 -77 79 C-75.63133258 75.84103547 -74.16790471 74.04852116 -71.51220703 71.87890625 C-66.33967678 67.4962096 -61.59099922 62.73454899 -56.8046875 57.9375 C-55.84414957 56.97763782 -54.88346342 56.01792394 -53.92263794 55.05834961 C-51.92254794 53.05972313 -49.9242499 51.05932722 -47.92724609 49.05761719 C-45.38458708 46.50925395 -42.83745281 43.96541864 -40.28895378 41.42289734 C-38.308716 39.44629511 -36.33089315 37.46729018 -34.35376358 35.48757935 C-32.96487822 34.09771552 -31.57400195 32.70984211 -30.18307495 31.32202148 C-25.57526711 26.69721867 -21.19463026 22.0014314 -17 17 C-15.76267681 15.85840781 -14.49679523 14.74577567 -13.1875 13.6875 C-8.98052507 10.13710497 -5.45629134 6.11876567 -1.8828125 1.94140625 C-1.26148437 1.30074219 -0.64015625 0.66007813 0 0 Z " fill="#FFFFFF" transform="translate(126,3)"/>
<path d="M0 0 C0 0.66 0 1.32 0 2 C-2.00968125 3.04261659 -4.03338189 4.05823523 -6.0625 5.0625 C-7.18785156 5.63097656 -8.31320313 6.19945312 -9.47265625 6.78515625 C-13.58428047 8.2012306 -15.77663441 7.84188235 -20 7 C-31.5516311 6.16031757 -40.94373722 6.87767591 -50.63671875 13.9140625 C-57.69385617 20.14300694 -61.23178235 28.46540785 -62.31640625 37.69140625 C-62.6859666 46.07208135 -60.65276734 54.13029519 -55.25 60.6875 C-54.13625 61.8321875 -54.13625 61.8321875 -53 63 C-54.57224825 67.04427713 -57.45170109 69.50576342 -60.625 72.3125 C-61.43686768 73.04315674 -61.43686768 73.04315674 -62.26513672 73.78857422 C-65.81742835 76.97728706 -69.40150531 80.13035108 -73.0078125 83.2578125 C-75.36020635 85.31500399 -77.68034966 87.40596915 -80 89.5 C-84.29594745 93.37699282 -88.63151246 97.20502898 -93 101 C-93.33 100.01 -93.66 99.02 -94 98 C-93.05898437 97.09378906 -92.11796875 96.18757813 -91.1484375 95.25390625 C-78.4266241 83.46792855 -78.4266241 83.46792855 -71.97265625 67.8125 C-72.01858534 63.08836475 -73.46675946 58.84500162 -74.95703125 54.39453125 C-78.74929317 42.05192596 -77.18897238 29.48852927 -71.875 17.8125 C-65.11685251 5.38557805 -54.39053454 -3.02517598 -41.0546875 -7.2734375 C-25.83060099 -10.89451179 -13.18801714 -7.70674752 0 0 Z " fill="#FFFFFF" transform="translate(94,25)"/>
</svg>
