<?xml version="1.0" encoding="UTF-8"?>
<svg version="1.1" xmlns="http://www.w3.org/2000/svg" width="128" height="128">
<path d="M0 0 C0.65404312 -0.0049649 1.30808624 -0.00992981 1.98194885 -0.01504517 C4.14447078 -0.02964268 6.30691933 -0.03646515 8.46948242 -0.04199219 C9.97539776 -0.04774616 11.48131308 -0.05350386 12.98722839 -0.05926514 C16.14546042 -0.06976863 19.30366703 -0.07561538 22.46191406 -0.07910156 C26.50035809 -0.08458127 30.5384641 -0.10860056 34.57680225 -0.13707352 C37.68842028 -0.15573824 40.79995755 -0.16090755 43.91162682 -0.16243744 C45.39991794 -0.16545647 46.88820789 -0.17345964 48.37644386 -0.18662262 C50.46346024 -0.20376217 52.5496597 -0.2017841 54.63671875 -0.1953125 C56.41517937 -0.20078094 56.41517937 -0.20078094 58.22956848 -0.20635986 C63.91977676 0.43061382 67.69657132 2.83656269 71.32495117 7.16113281 C71.90889648 7.84175781 72.4928418 8.52238281 73.09448242 9.22363281 C75.79045235 12.90738235 75.66225524 16.26811648 75.72119141 20.69287109 C75.73097519 21.35184891 75.74075897 22.01082672 75.75083923 22.68977356 C75.78074497 24.87031048 75.8021703 27.05078598 75.82104492 29.23144531 C75.82761675 29.97870754 75.83418858 30.72596977 75.84095955 31.49587631 C75.87353915 35.45491391 75.89798803 39.41392485 75.91748047 43.37304688 C75.93525575 46.6380977 75.97001477 49.90227867 76.02001953 53.16699219 C76.08047591 57.11928057 76.11099086 61.07076601 76.12065315 65.02349472 C76.12916936 66.52333804 76.14789237 68.02316214 76.17739677 69.52273941 C76.32287794 77.3407225 76.41515453 84.13340263 71.22973633 90.45150757 C65.06957513 96.58419151 59.64453875 96.68885339 51.20066833 96.71691895 C49.70953862 96.70975927 48.21841361 96.70155532 46.72729492 96.69238281 C45.18225358 96.69508085 43.6372139 96.69896587 42.09217834 96.70397949 C38.8635329 96.7098582 35.63533184 96.70136359 32.40673828 96.68261719 C28.27851788 96.65980878 24.15133674 96.67297204 20.02315426 96.69690704 C16.83598565 96.71139314 13.64906162 96.70674663 10.46188545 96.69639587 C8.94011879 96.69373732 7.41832956 96.69696759 5.89658928 96.70631409 C3.76656516 96.71652916 1.63820187 96.70091419 -0.49169922 96.67871094 C-1.7008046 96.67552856 -2.90990997 96.67234619 -4.15565491 96.66906738 C-9.59985057 95.83912044 -13.34609691 92.76013283 -16.80004883 88.59863281 C-17.29118164 88.01984375 -17.78231445 87.44105469 -18.28833008 86.84472656 C-20.81645403 83.29547111 -20.62943823 79.89915206 -20.66455078 75.68945312 C-20.67112198 75.0370163 -20.67769318 74.38457947 -20.6844635 73.71237183 C-20.70416164 71.55466591 -20.71585228 69.39702954 -20.72583008 67.23925781 C-20.72990561 66.50053185 -20.73398113 65.76180588 -20.73818016 65.00069427 C-20.75902775 61.0893329 -20.77333415 57.17800645 -20.78271484 53.26660156 C-20.79376646 49.23712217 -20.82815501 45.20819695 -20.86788654 41.17891312 C-20.8940993 38.07154348 -20.90241085 34.96430487 -20.90599632 31.85683441 C-20.91085162 30.37214167 -20.92243546 28.88745436 -20.94103432 27.40287018 C-21.04651998 18.42353309 -21.02546114 12.06012632 -14.67114258 5.20019531 C-14.09493164 4.73355469 -13.5187207 4.26691406 -12.92504883 3.78613281 C-12.05686523 3.06296875 -12.05686523 3.06296875 -11.17114258 2.32519531 C-7.58848095 -0.1519118 -4.21463817 0.0243207 0 0 Z M-9.48754883 42.59863281 C-11.89715289 45.68593802 -12.16957394 47.42640352 -11.90551758 51.25878906 C-11.23895513 54.29258265 -10.05265456 55.47356325 -7.48754883 57.16113281 C-3.80303165 58.33704255 -2.20500608 58.4959462 1.32495117 56.84863281 C3.60160743 55.34534693 3.60160743 55.34534693 4.51245117 53.16113281 C4.77020525 49.68145279 4.8773225 47.02770222 3.51245117 43.78613281 C-0.53459535 40.49790751 -4.88900445 40.39516363 -9.48754883 42.59863281 Z M9.51245117 41.16113281 C8.52245117 42.64613281 8.52245117 42.64613281 7.51245117 44.16113281 C9.82245117 44.82113281 12.13245117 45.48113281 14.51245117 46.16113281 C14.00713867 46.78761719 13.50182617 47.41410156 12.98120117 48.05957031 C12.33151367 48.87683594 11.68182617 49.69410156 11.01245117 50.53613281 C10.36276367 51.34824219 9.71307617 52.16035156 9.04370117 52.99707031 C7.31991503 54.99140124 7.31991503 54.99140124 7.51245117 57.16113281 C12.46245117 57.16113281 17.41245117 57.16113281 22.51245117 57.16113281 C22.18245117 56.17113281 21.85245117 55.18113281 21.51245117 54.16113281 C19.20245117 54.16113281 16.89245117 54.16113281 14.51245117 54.16113281 C15.08995117 53.39027344 15.66745117 52.61941406 16.26245117 51.82519531 C17.37620117 50.32085937 17.37620117 50.32085937 18.51245117 48.78613281 C19.25495117 47.78839844 19.99745117 46.79066406 20.76245117 45.76269531 C22.69849967 43.40711564 22.69849967 43.40711564 22.51245117 41.16113281 C20.38806778 41.0803464 18.26281887 41.0220414 16.13745117 40.97363281 C14.9540918 40.93882813 13.77073242 40.90402344 12.55151367 40.86816406 C11.54862305 40.96484375 10.54573242 41.06152344 9.51245117 41.16113281 Z M26.51245117 44.16113281 C24.21628153 47.03761506 24.21628153 47.03761506 24.38745117 50.59863281 C25.57669401 54.36456846 25.79521399 54.82179602 29.01245117 56.66113281 C33.65347985 58.59420041 37.71778452 58.59496646 42.51245117 57.16113281 C45.40196665 55.41538388 46.97030307 54.21154476 48.51245117 51.22363281 C48.51245117 48.07115186 47.459688 46.61088237 45.51245117 44.16113281 C38.97600684 39.85302178 33.08850902 40.03198021 26.51245117 44.16113281 Z M51.51245117 42.16113281 C51.51245117 47.11113281 51.51245117 52.06113281 51.51245117 57.16113281 C52.50245117 57.16113281 53.49245117 57.16113281 54.51245117 57.16113281 C54.51245117 54.52113281 54.51245117 51.88113281 54.51245117 49.16113281 C58.14245117 51.80113281 61.77245117 54.44113281 65.51245117 57.16113281 C66.17245117 56.83113281 66.83245117 56.50113281 67.51245117 56.16113281 C67.18245117 51.54113281 66.85245117 46.92113281 66.51245117 42.16113281 C65.52245117 42.16113281 64.53245117 42.16113281 63.51245117 42.16113281 C63.51245117 44.80113281 63.51245117 47.44113281 63.51245117 50.16113281 C62.8137793 49.58363281 62.11510742 49.00613281 61.39526367 48.41113281 C60.48518555 47.66863281 59.57510742 46.92613281 58.63745117 46.16113281 C57.7325293 45.41863281 56.82760742 44.67613281 55.89526367 43.91113281 C53.73652277 41.9638207 53.73652277 41.9638207 51.51245117 42.16113281 Z " fill="#FFFFFF" transform="translate(36.487548828125,15.8388671875)"/>
<path d="M0 0 C0.66 0.66 1.32 1.32 2 2 C1.8125 4 1.8125 4 1 6 C-2.99293937 8.66195958 -6.30263837 8.72919332 -11 8 C-13.5625 6 -13.5625 6 -15 4 C-13.98176734 0.94530201 -13.22907216 0.11719971 -10.3125 -1.375 C-6.24995263 -2.14151837 -3.82943578 -1.47285992 0 0 Z " fill="#FFFFFF" transform="translate(79,62)"/>
<path d="M0 0 C2.3125 1.5 2.3125 1.5 3.25 3.9375 C3.3125 6.5 3.3125 6.5 1.3125 9.5 C-1.6875 9.8125 -1.6875 9.8125 -4.6875 9.5 C-6.6875 7.5 -6.6875 7.5 -7.0625 5.0625 C-6.6875 2.5 -6.6875 2.5 -5 0.5625 C-2.6875 -0.5 -2.6875 -0.5 0 0 Z " fill="#FFFFFF" transform="translate(34.6875,60.5)"/>
</svg>
