<?xml version="1.0" encoding="UTF-8"?>
<svg version="1.1" xmlns="http://www.w3.org/2000/svg" width="128" height="128">
<path d="M0 0 C0.93457031 0.42410156 1.86914062 0.84820313 2.83203125 1.28515625 C19.15335783 9.48006008 30.80309126 22.83151514 37 40 C40.73506918 52.73101645 41.25900854 69.69767645 36 82 C35.5359375 83.10214844 35.071875 84.20429687 34.59375 85.33984375 C26.76598604 102.34307631 14.78078208 113.46448617 -2.26953125 121.02734375 C-16.9121982 126.24340108 -35.73765087 126.53097585 -50 120 C-50.93457031 119.57589844 -51.86914062 119.15179688 -52.83203125 118.71484375 C-69.15335783 110.51993992 -80.80309126 97.16848486 -87 80 C-90.73506918 67.26898355 -91.25900854 50.30232355 -86 38 C-85.30390625 36.34677734 -85.30390625 36.34677734 -84.59375 34.66015625 C-76.76598604 17.65692369 -64.78078208 6.53551383 -47.73046875 -1.02734375 C-33.0878018 -6.24340108 -14.26234913 -6.53097585 0 0 Z M-54.3203125 25.98828125 C-61.41618035 34.48682065 -62.23581887 43.30265623 -61.29980469 54.02880859 C-60.66852584 58.17941561 -58.93552637 61.08134447 -56 64 C-55.34 64.680625 -54.68 65.36125 -54 66.0625 C-51.33243834 67.31291953 -49.76213113 66.84398451 -47 66 C-45.80373126 61.19282973 -45.80373126 61.19282973 -47.375 56.75 C-47.91125 56.1725 -48.4475 55.595 -49 55 C-51.10266977 48.69199068 -50.72233847 42.78533846 -47.9375 36.75 C-44.58807975 30.73991353 -39.7609552 25.94743669 -33.2109375 23.47265625 C-25.66225035 21.85889097 -17.29152468 21.71447333 -10.546875 25.79296875 C-8.22595661 27.6039884 -6.60018719 29.53817355 -5 32 C-4.46632813 32.81597656 -4.46632813 32.81597656 -3.921875 33.6484375 C-1.13639727 40.75376628 -2.02744066 51.63349647 -4.6875 58.6875 C-6.8075665 63.1087063 -9.49034071 67.74517036 -14 70 C-15.66345582 70.12082534 -17.33220591 70.1753794 -19 70.1875 C-20.3303125 70.20876953 -20.3303125 70.20876953 -21.6875 70.23046875 C-24 70 -24 70 -26 68 C-26.72844804 62.99546733 -26.31566816 58.33196911 -24.5 53.625 C-22.4920633 48.27050214 -22.13483826 42.64899727 -23 37 C-24.17660945 35.10949347 -24.17660945 35.10949347 -26 34 C-30.0810649 33.39798831 -30.0810649 33.39798831 -34 34 C-36.72501377 36.17867849 -38.44123013 38.88246025 -40 42 C-39.93834325 43.63284072 -39.87222499 45.2656392 -39.78320312 46.8972168 C-39.3863621 55.61658348 -40.82179846 63.257157 -43 71.6875 C-46.07175806 83.65970563 -46.66559343 94.69884726 -46 107 C-45.34 107 -44.68 107 -44 107 C-38.75252829 100.3178747 -35.54731042 93.03110367 -33 85 C-32.41764426 83.27050385 -31.83438679 81.54131093 -31.25 79.8125 C-30.83175298 78.5421859 -30.41443527 77.27156277 -30 76 C-28.8553125 76.9590625 -28.8553125 76.9590625 -27.6875 77.9375 C-22.83056699 81.6649137 -17.90755646 81.72063809 -12 81 C-2.77080299 78.03000277 4.26256616 71.68594748 9 63.3125 C12.76489356 54.16918706 12.60190373 42.20186582 10.1484375 32.703125 C6.47248937 24.65104814 -0.15767999 18.36949868 -8.140625 14.69140625 C-24.2960487 8.68403231 -42.7387881 13.71186538 -54.3203125 25.98828125 Z " fill="#FFFFFF" transform="translate(89,4)"/>
</svg>
