<?xml version="1.0" encoding="UTF-8"?>
<svg version="1.1" xmlns="http://www.w3.org/2000/svg" width="128" height="128">
<path d="M0 0 C3.09672182 1.47988846 5.744564 3.27107584 8.55078125 5.24609375 C13.20240553 8.41425812 17.3728788 10.65770069 22.73828125 12.30859375 C22.57435766 22.47185624 18.59516542 31.06415597 14.73828125 40.30859375 C29.27557203 36.65019361 29.27557203 36.65019361 42.73828125 30.30859375 C43.39828125 30.30859375 44.05828125 30.30859375 44.73828125 30.30859375 C44.82722656 30.86804688 44.91617188 31.4275 45.0078125 32.00390625 C46.63421838 39.28178004 50.25041806 43.98618552 55.06567383 49.48486328 C56.53515625 51.20703125 56.53515625 51.20703125 58.73828125 54.30859375 C58.37597656 56.50244141 58.37597656 56.50244141 57.73828125 58.30859375 C56.62710938 58.34597656 55.5159375 58.38335937 54.37109375 58.421875 C40.42078595 58.68320668 40.42078595 58.68320668 28.05078125 64.37109375 C25.35660719 67.79342296 22.8382695 71.3065748 20.38671875 74.90625 C18.89076911 77.08636618 17.34070099 79.20602482 15.73828125 81.30859375 C13.42578125 81.3203125 13.42578125 81.3203125 10.73828125 80.30859375 C9.48260301 77.52255765 8.5706756 75.03205424 7.73828125 72.12109375 C5.52510748 64.57442855 3.28347503 59.5407528 -3.63671875 55.18359375 C-9.83689018 52.33486634 -16.65863821 50.92497284 -23.26171875 49.30859375 C-23.59171875 47.65859375 -23.92171875 46.00859375 -24.26171875 44.30859375 C-23.30910156 43.60734375 -22.35648438 42.90609375 -21.375 42.18359375 C-9.84829106 33.91848126 -9.84829106 33.91848126 -4.44921875 21.30859375 C-4.00631781 14.33290392 -4.18457121 7.29473253 -4.26171875 0.30859375 C-2.26171875 -0.69140625 -2.26171875 -0.69140625 0 0 Z " fill="#FFFFFF" transform="translate(25.26171875,37.69140625)"/>
<path d="M0 0 C2.29296875 0.05078125 2.29296875 0.05078125 5 1 C6.63686187 3.05415879 7.96346589 4.96139529 9.3125 7.1875 C12.99602626 12.88311465 16.98720261 18.51010955 23.81616211 20.53979492 C26.16034388 21.03378963 28.3728279 21.20903715 30.765625 21.31640625 C32.09980469 21.37924805 32.09980469 21.37924805 33.4609375 21.44335938 C34.38132813 21.48267578 35.30171875 21.52199219 36.25 21.5625 C37.65378906 21.62727539 37.65378906 21.62727539 39.0859375 21.69335938 C41.39048641 21.7991805 43.69513839 21.90126557 46 22 C46.66 23.32 47.32 24.64 48 26 C46.84371094 27.51980469 46.84371094 27.51980469 45.6640625 29.0703125 C44.65062495 30.42156256 43.63762726 31.7731426 42.625 33.125 C42.11710937 33.79015625 41.60921875 34.4553125 41.0859375 35.140625 C36.83142952 40.85062255 34.49386038 45.90964764 34.59375 53.2265625 C35.23232022 57.5860323 36.74538537 61.66800844 38.30883789 65.77124023 C39.28866017 68.41197658 40.03009483 70.55151364 39.83984375 73.38671875 C39 75 39 75 36 76 C33.63927735 75.25404675 31.37035779 74.44546876 29.0625 73.5625 C21.123465 70.74325406 12.97487012 68.87179446 4.9375 72.5 C-0.31225932 75.56328451 -5.1608842 79.33508141 -10 83 C-11.32 82.34 -12.64 81.68 -14 81 C-14.33 73.08 -14.66 65.16 -15 57 C-10.42056821 55.85514205 -5.99995935 55.66441604 -1.3125 55.48242188 C2.79338682 55.3766491 2.79338682 55.3766491 6 53 C6.57111385 49.93592885 6.53238674 47.88337462 4.89941406 45.17382812 C2.8339785 42.46337742 0.65067158 39.86714575 -1.55859375 37.2734375 C-5.64863451 32.20770027 -7.93789533 27.61663106 -8 21 C-7.3028098 17.29506853 -6.08447905 13.93124834 -4.6875 10.4375 C-4.35298828 9.53708984 -4.01847656 8.63667969 -3.67382812 7.70898438 C-1.23612477 1.23612477 -1.23612477 1.23612477 0 0 Z " fill="#FFFFFF" transform="translate(80,43)"/>
<path d="M0 0 C1.32 0 2.64 0 4 0 C4.19110352 0.60996826 4.38220703 1.21993652 4.57910156 1.84838867 C5.45815365 4.63178914 6.3538864 7.40954784 7.25 10.1875 C7.55035156 11.14720703 7.85070312 12.10691406 8.16015625 13.09570312 C10.31637447 19.72492722 12.15868672 24.3162588 18.375 28 C23.43111257 30.37934709 28.79826356 31.98545707 34.12109375 33.65625 C37 35 37 35 37.91015625 37.15625 C37.93980469 37.7646875 37.96945313 38.373125 38 39 C32.37976939 43.39731006 26.72200043 47.73606821 21 52 C19.66638645 52.99962627 18.33298014 53.99952925 17 55 C11.86367183 50.3452026 7.76689771 44.80457439 4 39 C4 38.34 4 37.68 4 37 C0.7 37 -2.6 37 -6 37 C-6.17015625 37.67804687 -6.3403125 38.35609375 -6.515625 39.0546875 C-11.42171468 57.89615957 -11.42171468 57.89615957 -18.37109375 63.4609375 C-23.81720457 66.64929956 -31.63109952 70 -38 70 C-35.23766505 59.6504517 -35.23766505 59.6504517 -33.8125 55.75 C-31.93764996 49.4043537 -32.92880799 43.76439116 -36 38 C-37.96160373 35.1448909 -39.93219822 32.31737153 -42.03881836 29.56787109 C-45.0492122 25.50196444 -45.0492122 25.50196444 -44.765625 22.609375 C-44.51296875 22.07828125 -44.2603125 21.5471875 -44 21 C-40.26172342 20.03599561 -36.81852671 19.98361507 -32.97216797 20.1171875 C-22.38547345 20.46210789 -22.38547345 20.46210789 -13 16 C-9.68117738 12.88127272 -6.99988459 9.41329841 -4.375 5.703125 C-3.859375 4.97609375 -3.34375 4.2490625 -2.8125 3.5 C-2.14154297 2.49453125 -2.14154297 2.49453125 -1.45703125 1.46875 C-0.97621094 0.9840625 -0.49539062 0.499375 0 0 Z " fill="#FFFFFF" transform="translate(83,4)"/>
</svg>
