<?xml version="1.0" encoding="UTF-8"?>
<svg version="1.1" xmlns="http://www.w3.org/2000/svg" width="128" height="128">
<path d="M0 0 C23.1 0 46.2 0 70 0 C70 1.98 70 3.96 70 6 C70.53109375 5.72285156 71.0621875 5.44570313 71.609375 5.16015625 C72.31578125 4.79792969 73.0221875 4.43570312 73.75 4.0625 C74.79414063 3.52302734 74.79414063 3.52302734 75.859375 2.97265625 C84.86713645 -1.12028645 99.0734298 -0.49425729 108.25 2.625 C117.75987127 6.88804574 123.42012664 12.61174215 127.3125 22.25 C129.40717747 33.67551348 127.81663591 42.77495748 121.25 52.375 C116.20026804 58.56037037 109.39608031 63.00578512 102.92529297 67.5871582 C100.56317333 69.32055744 98.28786327 71.16970938 96 73 C111.84 73.495 111.84 73.495 128 74 C128.0309375 79.630625 128.0309375 79.630625 128.0625 85.375 C128.071604 86.55755371 128.08070801 87.74010742 128.09008789 88.95849609 C128.09383423 90.35189209 128.09383423 90.35189209 128.09765625 91.7734375 C128.10289307 92.72653809 128.10812988 93.67963867 128.11352539 94.66162109 C128 97 128 97 127 99 C102.91 99 78.82 99 54 99 C54 91.08 54 83.16 54 75 C63.63213385 66.27524108 63.63213385 66.27524108 67.859375 63.98828125 C72.55835569 61.31745587 76.69998839 58.29410148 80.875 54.875 C81.95474047 54.0169835 83.03540718 53.16013074 84.1171875 52.3046875 C85.06851563 51.54414062 86.01984375 50.78359375 87 50 C88.34191406 48.97519531 88.34191406 48.97519531 89.7109375 47.9296875 C94.12075165 44.21219912 97.00611233 39.52735412 98 33.8125 C98.19319219 30.09142319 98.19319219 30.09142319 97.0625 27.0625 C94.45438652 24.45438652 92.62689467 24.01466156 88.99609375 23.828125 C86.80067352 23.91376782 86.80067352 23.91376782 84.1875 25.1875 C80.77382568 29.57650983 80.04147956 34.61478859 79 40 C70.50692562 38.8356269 62.27657818 37.23691302 54 35 C54.33 31.7 54.66 28.4 55 25 C53.35 24.67 51.7 24.34 50 24 C50 48.75 50 73.5 50 99 C40.1 99 30.2 99 20 99 C20 74.25 20 49.5 20 24 C13.4 24 6.8 24 0 24 C0 16.08 0 8.16 0 0 Z " fill="#FFFFFF" transform="translate(0,14)"/>
</svg>
