<?xml version="1.0" encoding="UTF-8"?>
<svg version="1.1" xmlns="http://www.w3.org/2000/svg" width="128" height="128">
<path d="M0 0 C36.96 0 73.92 0 112 0 C112.103125 9.631875 112.20625 19.26375 112.3125 29.1875 C112.35802002 32.20156982 112.40354004 35.21563965 112.45043945 38.32104492 C112.46506246 40.74917493 112.47779881 43.17731734 112.48828125 45.60546875 C112.51386108 46.83446899 112.53944092 48.06346924 112.5657959 49.32971191 C112.5717683 61.35454781 109.20780644 71.62979926 101.27734375 80.80078125 C97.29447392 84.64701747 92.78706734 87.26883942 88 90 C86.83884501 90.70062799 85.68008647 91.40523912 84.5234375 92.11328125 C81.37692285 94.0366166 78.21206265 95.92615865 75.03515625 97.79882812 C73.6318679 98.62706453 72.23096112 99.45934484 70.83203125 100.29492188 C68.66629756 101.5847792 66.49098281 102.85681982 64.3125 104.125 C63.64130127 104.5276709 62.97010254 104.9303418 62.27856445 105.34521484 C57.54904526 108.06174939 57.54904526 108.06174939 55.15917969 107.79296875 C52.30014407 106.74297466 49.75207557 105.34810679 47.08984375 103.8671875 C46.52229874 103.55226349 45.95475372 103.23733948 45.37001038 102.91287231 C44.16770158 102.24429503 42.96667196 101.57341289 41.7668457 100.90039062 C39.97089046 99.89371612 38.17044396 98.89550358 36.36914062 97.8984375 C5.46639276 80.71278005 5.46639276 80.71278005 0 62 C-0.24050903 58.92471313 -0.24050903 58.92471313 -0.22705078 55.62744141 C-0.22680908 54.36939697 -0.22656738 53.11135254 -0.22631836 51.81518555 C-0.21608643 50.50718994 -0.20585449 49.19919434 -0.1953125 47.8515625 C-0.19329834 46.63879639 -0.19128418 45.42603027 -0.18920898 44.17651367 C-0.17876881 39.65930381 -0.15084626 35.14214799 -0.125 30.625 C-0.08375 20.51875 -0.0425 10.4125 0 0 Z M31 27 C31 31.29 31 35.58 31 40 C36.61 40 42.22 40 48 40 C47.98839844 41.45792969 47.97679688 42.91585937 47.96484375 44.41796875 C47.9554624 46.34114455 47.94636257 48.26432174 47.9375 50.1875 C47.92912109 51.14720703 47.92074219 52.10691406 47.91210938 53.09570312 C47.90888672 54.02705078 47.90566406 54.95839844 47.90234375 55.91796875 C47.89710693 56.77156982 47.89187012 57.6251709 47.88647461 58.50463867 C47.91194831 61.00755442 47.91194831 61.00755442 48.63110352 63.38012695 C49 66 49 66 47 73 C52.61 73 58.22 73 64 73 C63.505 69.535 63.505 69.535 63 66 C63.33 65.67 63.66 65.34 64 65 C64.08737645 63.14630389 64.10698153 61.28932459 64.09765625 59.43359375 C64.09443359 58.30888672 64.09121094 57.18417969 64.08789062 56.02539062 C64.07951172 54.84138672 64.07113281 53.65738281 64.0625 52.4375 C64.05798828 51.24962891 64.05347656 50.06175781 64.04882812 48.83789062 C64.03699675 45.89187774 64.02051287 42.94596319 64 40 C66.27076842 39.97300275 68.54162821 39.95360547 70.8125 39.9375 C72.07707031 39.92589844 73.34164062 39.91429687 74.64453125 39.90234375 C78 40 78 40 81 41 C81 36.38 81 31.76 81 27 C64.5 27 48 27 31 27 Z " fill="#FFFFFF" transform="translate(9,14)"/>
</svg>
