<?xml version="1.0" encoding="UTF-8"?>
<svg version="1.1" xmlns="http://www.w3.org/2000/svg" width="128" height="128">
<path d="M0 0 C42.24 0 84.48 0 128 0 C128 42.24 128 84.48 128 128 C85.76 128 43.52 128 0 128 C0 85.76 0 43.52 0 0 Z M48.49609375 26.40625 C47.4740319 27.434992 46.45462036 28.46637207 45.4375 29.5 C44.91736328 30.02464844 44.39722656 30.54929687 43.86132812 31.08984375 C42.57198309 32.39101763 41.2857063 33.69523051 40 35 C45.24458586 41.36590304 51.02097322 47.13570612 56.875 52.9375 C57.85960919 53.91708237 58.843986 54.89689837 59.828125 55.87695312 C62.21648203 58.25360252 64.60715212 60.62787356 67 63 C65.37843976 67.10108886 62.4232297 69.83148167 59.3359375 72.859375 C58.78386627 73.40861633 58.23179504 73.95785767 57.66299438 74.52374268 C55.90498185 76.27059293 54.1401311 78.01034601 52.375 79.75 C51.1792292 80.93573591 49.98391135 82.1219288 48.7890625 83.30859375 C45.86459747 86.21105085 42.93398126 89.1071641 40 92 C40.86807601 93.06816445 41.74494783 94.12918085 42.625 95.1875 C43.11226562 95.77917969 43.59953125 96.37085937 44.1015625 96.98046875 C46.51407112 99.54686166 49.29409712 101.74508093 52 104 C64.87 91.13 77.74 78.26 91 65 C89.2502694 61.5005388 88.066719 59.81793451 85.39233398 57.14941406 C84.65494492 56.40894836 83.91755585 55.66848267 83.15782166 54.90557861 C81.96401634 53.72255157 81.96401634 53.72255157 80.74609375 52.515625 C79.93004166 51.70003113 79.11398956 50.88443726 78.27320862 50.04412842 C76.54982011 48.3237585 74.8240043 46.6058172 73.09594727 44.89013672 C70.43902715 42.25151663 67.79023958 39.60493838 65.14257812 36.95703125 C63.46922215 35.28858882 61.79540975 33.62060402 60.12109375 31.953125 C59.32319931 31.15634338 58.52530487 30.35956177 57.70323181 29.53863525 C56.60187645 28.44684967 56.60187645 28.44684967 55.47827148 27.33300781 C54.82922348 26.68777161 54.18017548 26.0425354 53.51145935 25.37774658 C50.97347771 23.06429004 51.20508377 23.80291482 48.49609375 26.40625 Z " fill="#FFFFFF" transform="translate(0,0)"/>
</svg>
