<?xml version="1.0" encoding="UTF-8"?>
<svg version="1.1" xmlns="http://www.w3.org/2000/svg" width="128" height="128">
<path d="M0 0 C9.24 0 18.48 0 28 0 C28 6.93 28 13.86 28 21 C37.9 21 47.8 21 58 21 C58 14.07 58 7.14 58 0 C67.24 0 76.48 0 86 0 C86 16.17 86 32.34 86 49 C57.62 49 29.24 49 0 49 C0 32.83 0 16.66 0 0 Z " fill="#FFFFFF" transform="translate(21,55)"/>
<path d="M0 0 C11.22 0 22.44 0 34 0 C34 7.26 34 14.52 34 22 C22.78 22 11.56 22 0 22 C0 14.74 0 7.48 0 0 Z " fill="#FFFFFF" transform="translate(47,24)"/>
</svg>
