<?xml version="1.0" encoding="UTF-8"?>
<svg version="1.1" xmlns="http://www.w3.org/2000/svg" width="128" height="128">
<path d="M0 0 C1.24007812 -0.00386719 2.48015625 -0.00773437 3.7578125 -0.01171875 C5.70300781 0.00568359 5.70300781 0.00568359 7.6875 0.0234375 C8.98429687 0.01183594 10.28109375 0.00023438 11.6171875 -0.01171875 C12.85726562 -0.00785156 14.09734375 -0.00398438 15.375 0 C16.51324219 0.00338379 17.65148437 0.00676758 18.82421875 0.01025391 C21.6875 0.3984375 21.6875 0.3984375 23.51953125 1.73583984 C25.97390294 5.22962564 25.80450836 8.47565657 25.78515625 12.59765625 C25.78032227 14.41040039 25.78032227 14.41040039 25.77539062 16.25976562 C25.76282227 18.1537207 25.76282227 18.1537207 25.75 20.0859375 C25.74548828 21.36017578 25.74097656 22.63441406 25.73632812 23.94726562 C25.72452873 27.09770314 25.70806597 30.24804699 25.6875 33.3984375 C29.830339 30.23792993 32.09873242 27.48601544 34.625 22.8984375 C35.13377686 21.9844519 35.13377686 21.9844519 35.65283203 21.05200195 C38.43730673 16.00080513 40.99515611 10.84286298 43.4609375 5.62890625 C44.6875 3.3984375 44.6875 3.3984375 46.6875 2.3984375 C51.16193572 2.15389913 55.64463724 2.21323394 60.125 2.2109375 C61.37861328 2.19869141 62.63222656 2.18644531 63.92382812 2.17382812 C65.12330078 2.17189453 66.32277344 2.16996094 67.55859375 2.16796875 C68.66130615 2.16385986 69.76401855 2.15975098 70.90014648 2.15551758 C73.6875 2.3984375 73.6875 2.3984375 76.6875 4.3984375 C77.90529121 11.97580502 74.96752408 16.32748136 70.6875 22.3984375 C69.58130261 23.90078241 68.47162013 25.40056446 67.359375 26.8984375 C66.76793701 27.69975098 66.17649902 28.50106445 65.56713867 29.32666016 C64.36464618 30.94581638 63.14877722 32.55513134 61.91918945 34.15380859 C61.3593335 34.90227051 60.79947754 35.65073242 60.22265625 36.421875 C59.710979 37.09138184 59.19930176 37.76088867 58.67211914 38.45068359 C57.50614094 40.34085962 57.50614094 40.34085962 57.84033203 42.44433594 C58.8228264 44.71058519 59.91762191 45.94277408 61.70703125 47.640625 C62.31740234 48.23230469 62.92777344 48.82398438 63.55664062 49.43359375 C64.51860352 50.34431641 64.51860352 50.34431641 65.5 51.2734375 C76.40875118 61.6574074 76.40875118 61.6574074 77.0625 68.0859375 C76.6875 71.3984375 76.6875 71.3984375 74.6875 74.3984375 C70.14258324 75.07803971 65.52709241 74.86112987 60.9375 74.8359375 C59.66132812 74.85591797 58.38515625 74.87589844 57.0703125 74.89648438 C45.47575895 74.89043294 45.47575895 74.89043294 40.6875 70.3984375 C40.03523438 69.810625 39.38296875 69.2228125 38.7109375 68.6171875 C38.16695313 68.05 37.62296875 67.4828125 37.0625 66.8984375 C36.47855469 66.29902344 35.89460938 65.69960937 35.29296875 65.08203125 C33.98490175 63.71031135 32.67954945 62.33600313 31.375 60.9609375 C29.82621247 59.17196816 29.82621247 59.17196816 27.6875 59.3984375 C27.50574219 60.31367187 27.32398437 61.22890625 27.13671875 62.171875 C26.88535156 63.36039063 26.63398437 64.54890625 26.375 65.7734375 C26.13136719 66.95679687 25.88773437 68.14015625 25.63671875 69.359375 C24.6875 72.3984375 24.6875 72.3984375 21.6875 74.3984375 C7.02582041 75.69167283 -4.92978211 73.84464847 -16.79296875 64.578125 C-28.83422247 54.16104039 -36.61616045 40.12087557 -43.97381592 26.21844482 C-44.61186518 25.01342925 -45.25410764 23.81062384 -45.9006958 22.61016846 C-46.81654578 20.90201059 -47.70941604 19.18159411 -48.6015625 17.4609375 C-49.12443848 16.46191406 -49.64731445 15.46289062 -50.18603516 14.43359375 C-51.50796946 10.87176296 -51.65455512 8.1695526 -51.3125 4.3984375 C-47.74886841 0.83480591 -42.32272306 1.98624625 -37.5 1.9609375 C-36.40623047 1.92806641 -35.31246094 1.89519531 -34.18554688 1.86132812 C-26.18449432 1.80769523 -26.18449432 1.80769523 -22.296875 4.44140625 C-19.97637483 7.89931694 -18.11627569 11.37241768 -16.375 15.1484375 C-11.98626631 25.70969077 -11.98626631 25.70969077 -4.3125 33.3984375 C-2.74459039 22.29787209 -2.74459039 22.29787209 -4.3125 11.3984375 C-7.19524079 8.77869324 -7.19524079 8.77869324 -10.3125 7.3984375 C-9.2058573 0.97990986 -6.19906802 0.01842871 0 0 Z " fill="#FFFFFF" transform="translate(51.3125,26.6015625)"/>
</svg>
