<?xml version="1.0" encoding="UTF-8"?>
<svg version="1.1" xmlns="http://www.w3.org/2000/svg" width="128" height="128">
<path d="M0 0 C0.84954254 -0.00761353 1.69908508 -0.01522705 2.57437134 -0.02307129 C4.37149111 -0.03387508 6.16867369 -0.03672425 7.96582031 -0.03222656 C10.71005646 -0.03125584 13.45148139 -0.07283678 16.1953125 -0.1171875 C17.94270251 -0.12239588 19.69010223 -0.12508267 21.4375 -0.125 C22.2553598 -0.14139526 23.0732196 -0.15779053 23.91586304 -0.17468262 C28.18540366 -0.1231355 29.83768502 0.05484083 33.27441406 2.82299805 C35.5589977 5.732969 37.7132763 8.68004965 39.7265625 11.78125 C40.14373535 12.41514648 40.5609082 13.04904297 40.99072266 13.70214844 C46.32355693 21.86500133 51.44929964 30.16161524 56.59765625 38.44140625 C59.47028177 43.06067035 62.36241246 47.66690256 65.27319336 52.26220703 C66.74383094 54.58481487 68.20803566 56.91138506 69.671875 59.23828125 C71.38902022 61.96315527 73.13313135 64.66672325 74.90625 67.35546875 C75.29111572 67.95012939 75.67598145 68.54479004 76.07250977 69.1574707 C77.07923911 70.71271104 78.09955882 72.25913166 79.12109375 73.8046875 C80.3515625 76.46875 80.3515625 76.46875 80.37109375 78.77734375 C78.81790837 82.87751511 76.55523861 86.45349365 74.2265625 90.15625 C73.73172363 90.95409912 73.23688477 91.75194824 72.72705078 92.57397461 C63.54666145 107.27365105 63.54666145 107.27365105 60.3515625 110.46875 C57.0390625 110.78125 57.0390625 110.78125 53.3515625 110.46875 C50.26073416 107.86365516 48.20800466 104.92129907 46.1015625 101.49609375 C45.49932861 100.52373779 44.89709473 99.55138184 44.27661133 98.54956055 C43.64134521 97.51226807 43.0060791 96.47497559 42.3515625 95.40625 C41.0016996 93.22371243 39.65143451 91.04142355 38.30078125 88.859375 C37.63224121 87.77591797 36.96370117 86.69246094 36.27490234 85.57617188 C33.5985544 81.25216112 30.88549505 76.95197845 28.1640625 72.65625 C27.19138455 71.11850331 26.21872819 69.58074296 25.24609375 68.04296875 C24.76994629 67.29063965 24.29379883 66.53831055 23.80322266 65.76318359 C21.81938627 62.62761442 19.83817878 59.49038838 17.85717773 56.35302734 C16.85826042 54.77115179 15.8590768 53.18944437 14.85961914 51.60791016 C12.30537871 47.56575051 9.75499287 43.52123508 7.2109375 39.47265625 C1.70748438 30.72207993 -3.85219485 22.02935452 -9.6484375 13.46875 C-12.11167819 9.77388897 -12.03835438 7.83581908 -11.6484375 3.46875 C-8.59244235 -0.57383774 -4.69292713 0.00115004 0 0 Z " fill="#FFFFFF" transform="translate(11.6484375,8.53125)"/>
<path d="M0 0 C0.84954254 -0.00761353 1.69908508 -0.01522705 2.57437134 -0.02307129 C4.37149111 -0.03387508 6.16867369 -0.03672425 7.96582031 -0.03222656 C10.71005646 -0.03125584 13.45148139 -0.07283678 16.1953125 -0.1171875 C17.94270251 -0.12239588 19.69010223 -0.12508267 21.4375 -0.125 C22.2553598 -0.14139526 23.0732196 -0.15779053 23.91586304 -0.17468262 C28.20089445 -0.12294848 29.83848181 0.05319952 33.2824707 2.8425293 C35.33529542 5.44810281 37.32818322 8.01743173 39.1640625 10.78125 C40.07091797 12.10576172 40.07091797 12.10576172 40.99609375 13.45703125 C42.70492687 17.253891 43.16960994 20.41986156 42.3515625 24.46875 C40.98816821 27.50125642 39.20262855 30.13273548 37.2890625 32.84375 C36.78898682 33.58181885 36.28891113 34.3198877 35.77368164 35.08032227 C34.31663337 37.22212925 32.83653593 39.34625142 31.3515625 41.46875 C30.619375 42.54253906 29.8871875 43.61632813 29.1328125 44.72265625 C24.81929506 51.00101744 24.81929506 51.00101744 22.3515625 53.46875 C19.29578027 53.70841919 18.05089185 53.71884925 15.3515625 52.46875 C12.46951898 49.51606816 10.49479178 45.97621939 8.3515625 42.46875 C7.42343392 41.01249553 6.49220967 39.55821135 5.55859375 38.10546875 C2.95571422 34.04374079 0.39452857 29.95756736 -2.15283203 25.86083984 C-3.57204881 23.59092702 -5.01208177 21.33561747 -6.45703125 19.08203125 C-7.2924906 17.7531218 -8.12717288 16.42372339 -8.9609375 15.09375 C-9.35200684 14.49409424 -9.74307617 13.89443848 -10.14599609 13.27661133 C-11.78110401 10.62761522 -12.66108965 8.88928346 -12.56640625 5.7421875 C-10.11902057 -0.31899747 -5.91418624 0.00144932 0 0 Z " fill="#FFFFFF" transform="translate(85.6484375,8.53125)"/>
</svg>
