<?xml version="1.0" encoding="UTF-8"?>
<svg version="1.1" xmlns="http://www.w3.org/2000/svg" width="128" height="128">
<path d="M0 0 C5.14096755 -0.19865521 10.27967564 -0.34333226 15.42358398 -0.43945312 C17.17072485 -0.47953925 18.91759974 -0.53402743 20.66381836 -0.60351562 C35.03780067 -1.16093268 35.03780067 -1.16093268 39.49072266 1.47363281 C41.33490127 3.53882301 42.63463481 5.59422703 44 8 C45.19856025 9.61021876 46.4126958 11.20893892 47.640625 12.796875 C48.84747691 14.44519439 50.05058503 16.09626118 51.25 17.75 C52.4634841 19.41150038 53.67702375 21.07296019 54.890625 22.734375 C55.41688477 23.45850586 55.94314453 24.18263672 56.48535156 24.92871094 C57.97426629 26.96480902 59.4823927 28.98522591 61 31 C65.32978659 29.42367108 67.73266027 26.07280311 70.5625 22.625 C71.62185781 21.35913488 72.68309744 20.09484252 73.74609375 18.83203125 C74.28347168 18.19346191 74.82084961 17.55489258 75.37451172 16.89697266 C78.74100416 12.96821834 82.29000445 9.20679233 85.8203125 5.42578125 C88.10014131 3.00526148 88.10014131 3.00526148 90 0 C91.97119141 -0.34057617 91.97119141 -0.34057617 94.3515625 -0.29296875 C95.62773437 -0.2784668 95.62773437 -0.2784668 96.9296875 -0.26367188 C97.81914063 -0.23853516 98.70859375 -0.21339844 99.625 -0.1875 C100.97078125 -0.16719727 100.97078125 -0.16719727 102.34375 -0.14648438 C104.56309789 -0.11106925 106.78125188 -0.06168461 109 0 C109 0.66 109 1.32 109 2 C108.34 2 107.68 2 107 2 C106.77441406 2.54527344 106.54882812 3.09054688 106.31640625 3.65234375 C104.60856854 6.69807213 102.32946446 9.05321848 99.9375 11.5625 C96.31013008 15.43675897 92.82453427 19.35785875 89.5 23.5 C85.74222855 28.181925 81.76893142 32.59832807 77.62890625 36.94140625 C75.22282167 39.50136833 73.48101674 41.82832103 72 45 C79.26673295 54.94186783 86.59316037 64.83418236 94.0625 74.625 C94.72507812 75.49455322 95.38765625 76.36410645 96.0703125 77.26000977 C99.32542576 81.52438332 102.59799658 85.77364552 105.90234375 90 C106.51005615 90.78165527 107.11776855 91.56331055 107.74389648 92.36865234 C108.88697314 93.83734614 110.03594026 95.30148052 111.19165039 96.76025391 C115 101.66392261 115 101.66392261 115 105 C84.45830219 108.16091133 84.45830219 108.16091133 76 103.26269531 C71.28837489 98.79254099 68.31699773 93.37202743 65.41308594 87.6171875 C63.26613199 83.64079733 60.46749672 80.31531096 57.5625 76.875 C53 71.30148702 53 71.30148702 53 69 C52.34 69 51.68 69 51 69 C50.76410156 69.55558594 50.52820312 70.11117187 50.28515625 70.68359375 C48.6872248 73.56375591 46.694995 75.66369076 44.4375 78.0625 C40.96608181 81.79595956 37.6408372 85.59216657 34.4375 89.5625 C33.69113281 90.45710938 32.94476563 91.35171875 32.17578125 92.2734375 C29.95556302 94.96537078 29.95556302 94.96537078 28.10546875 97.9140625 C23.36444538 104.55336545 23.36444538 104.55336545 18.74853516 105.42529297 C13.13140804 105.85804378 7.60079154 105.51278865 2 105 C2 103 2 103 4.171875 100.7265625 C5.10515625 99.82679687 6.0384375 98.92703125 7 98 C13.1510459 91.49480297 18.98864985 84.85329368 24.59765625 77.875 C27.90068185 73.92211083 31.39620277 70.16328002 34.92749023 66.41430664 C37.46042868 63.71656955 39.8594018 61.0215927 42 58 C40.61023708 55.02443917 38.98955167 52.48886524 37.015625 49.8671875 C36.41709717 49.06998291 35.81856934 48.27277832 35.2019043 47.45141602 C34.55777588 46.60119873 33.91364746 45.75098145 33.25 44.875 C32.58331299 43.99062256 31.91662598 43.10624512 31.22973633 42.19506836 C24.06794795 32.72008232 16.7672121 23.35319543 9.4375 14.0078125 C8.01722903 12.19548756 6.60191052 10.37939979 5.1875 8.5625 C4.39730469 7.55316406 3.60710938 6.54382813 2.79296875 5.50390625 C1 3 1 3 0 0 Z M22 11 C25.76903764 16.9861186 29.94374176 22.44062031 34.46484375 27.875 C37.32077981 31.35198704 40.00372483 34.9519472 42.6875 38.5625 C47.11523433 44.5164474 51.61906607 50.40329081 56.1875 56.25 C60.80254854 62.15836229 65.35771091 68.1003815 69.8359375 74.11328125 C72.73591704 77.98166551 75.68503823 81.81120588 78.63964844 85.63793945 C80.34094499 87.84163929 82.00402901 90.00635384 83.49609375 92.359375 C84.89296255 94.21885607 84.89296255 94.21885607 87.26171875 94.390625 C88.06222656 94.34421875 88.86273438 94.2978125 89.6875 94.25 C90.44909424 94.20584961 91.21068848 94.16169922 91.99536133 94.11621094 C92.65689209 94.07786133 93.31842285 94.03951172 94 94 C90.00520428 87.82374587 85.74898835 81.95525421 81.1875 76.1875 C79.9380313 74.59435421 78.68933203 73.00060467 77.44140625 71.40625 C76.84473145 70.64441406 76.24805664 69.88257813 75.63330078 69.09765625 C72.87642581 65.55698813 70.19908816 61.95863141 67.51953125 58.359375 C64.83593921 54.76626224 62.10726759 51.20786091 59.38305664 47.64550781 C51.60006107 37.46640313 43.93489072 27.20849768 36.37182617 16.86499023 C35.91912354 16.24954346 35.4664209 15.63409668 35 15 C34.49855469 14.26950439 33.99710938 13.53900879 33.48046875 12.78637695 C32.11492858 10.73792417 32.11492858 10.73792417 29.51953125 10.609375 C28.62621094 10.65578125 27.73289062 10.7021875 26.8125 10.75 C25.91144531 10.78609375 25.01039062 10.8221875 24.08203125 10.859375 C23.39496094 10.90578125 22.70789063 10.9521875 22 11 Z " fill="#EDEDED" transform="translate(7,12)"/>
<path d="M0 0 C12.21 0 24.42 0 37 0 C37 0.33 37 0.66 37 1 C32.21282589 1.14298018 27.42563504 1.28538147 22.63842773 1.42724609 C21.00984227 1.4755894 19.38126149 1.52409095 17.75268555 1.57275391 C15.41195877 1.64266894 13.07121573 1.71201507 10.73046875 1.78125 C9.63813179 1.81406067 9.63813179 1.81406067 8.52372742 1.84753418 C5.68106494 1.93116974 2.84409006 2 0 2 C0 1.34 0 0.68 0 0 Z " fill="#D5D5D5" transform="translate(7,12)"/>
<path d="M0 0 C0.66 0 1.32 0 2 0 C0.44499019 3.81684226 -2.03595495 6.19195732 -5 9 C-5.66 8.67 -6.32 8.34 -7 8 C-5.88200014 6.66079162 -4.75538103 5.32877444 -3.625 4 C-2.68527344 2.88625 -2.68527344 2.88625 -1.7265625 1.75 C-1.15679687 1.1725 -0.58703125 0.595 0 0 Z " fill="#B6B6B6" transform="translate(97,12)"/>
</svg>
