<?xml version="1.0" encoding="UTF-8"?>
<svg version="1.1" xmlns="http://www.w3.org/2000/svg" width="128" height="128">
<path d="M0 0 C4.2617808 1.07410736 8.50300164 1.13234236 12.8828125 1.2890625 C24.09231868 1.70920123 35.5169175 2.29226189 44.4453125 9.9140625 C46.89729421 14.71141803 46.56947585 18.95262445 45.29296875 24.109375 C42.71311689 31.50415774 38.06010278 37.90960701 32.8828125 43.7265625 C32.2228125 43.7265625 31.5628125 43.7265625 30.8828125 43.7265625 C30.5528125 44.7165625 30.2228125 45.7065625 29.8828125 46.7265625 C29.2228125 46.7265625 28.5628125 46.7265625 27.8828125 46.7265625 C27.8828125 47.3865625 27.8828125 48.0465625 27.8828125 48.7265625 C15.78973032 60.85002931 -0.85961186 68.91036625 -16.95507812 74.02734375 C-18.87486919 74.64819759 -20.77177882 75.33883418 -22.6640625 76.0390625 C-31.20717981 78.8736452 -39.47875899 79.13447595 -48.4296875 79.2265625 C-49.62263428 79.24517334 -50.81558105 79.26378418 -52.04467773 79.28295898 C-60.95301528 79.2189239 -67.6754184 77.48045934 -75.2421875 72.7890625 C-78.40143965 67.62895066 -78.02159023 62.58867656 -77.1171875 56.7265625 C-74.43154283 48.45017894 -69.35323811 42.51267339 -63.69921875 36.0703125 C-60.67519635 32.38043994 -58.618293 28.28942391 -56.4921875 24.0390625 C-51.08083979 13.33405624 -45.05075877 6.11562132 -34.1171875 0.7265625 C-33.45589844 0.38625 -32.79460938 0.0459375 -32.11328125 -0.3046875 C-22.52551511 -4.35744188 -9.56476202 -3.56595657 0 0 Z M-19.1171875 16.7265625 C-19.82842773 17.03577637 -20.53966797 17.34499023 -21.27246094 17.66357422 C-36.97158595 24.56843384 -50.76692597 32.7146643 -63.1171875 44.7265625 C-63.931875 45.479375 -64.7465625 46.2321875 -65.5859375 47.0078125 C-70.14898607 51.33381958 -74.40685971 55.51870607 -76.1171875 61.7265625 C-76.18849502 66.00501367 -75.94321523 67.8519449 -72.9921875 70.9765625 C-60.14361814 78.79743081 -42.97410889 78.67066945 -28.61791992 75.2409668 C-12.27803604 70.8432527 2.70495419 64.21459892 16.5703125 54.4765625 C17.19558838 54.03989258 17.82086426 53.60322266 18.46508789 53.15332031 C19.97722819 52.06398589 21.43582079 50.90105504 22.8828125 49.7265625 C22.8828125 49.0665625 22.8828125 48.4065625 22.8828125 47.7265625 C23.47449219 47.4584375 24.06617187 47.1903125 24.67578125 46.9140625 C32.90745185 42.48498664 39.66927331 32.61336933 42.8828125 24.0390625 C44.02815516 19.95472735 44.22611389 16.83548439 42.8828125 12.7265625 C37.83566332 7.19873244 33.30982001 6.97749401 26.1484375 6.453125 C10.2312359 5.88805245 -4.60701729 10.39695522 -19.1171875 16.7265625 Z " fill="#FDFDFE" transform="translate(80.1171875,27.2734375)"/>
<path d="M0 0 C0.55171875 0.48855469 1.1034375 0.97710937 1.671875 1.48046875 C1.09515417 8.00403229 -1.64914503 10.59722878 -6.27734375 14.95703125 C-18.01406992 24.66500194 -34.69460283 32.35269547 -50.1640625 31.984375 C-52.78793293 31.37340156 -54.29897163 30.21775759 -56.328125 28.48046875 C-56.19531978 23.16826002 -54.15950966 20.29313792 -50.66015625 16.55859375 C-40.51842306 7.52106937 -13.50300939 -8.81320579 0 0 Z " fill="#FDFEFF" transform="translate(96.328125,62.51953125)"/>
</svg>
