<?xml version="1.0" encoding="UTF-8"?>
<svg version="1.1" xmlns="http://www.w3.org/2000/svg" width="128" height="128">
<path d="M0 0 C12.87864175 9.52637586 20.92331179 20.48982788 24.984375 36.11328125 C27.30484054 51.95807622 25.04790812 67.67188772 15.37109375 80.75390625 C5.8994013 92.80713484 -5.53104498 100.43458136 -20.62890625 103.75390625 C-37.72325853 105.28509051 -52.38801886 102.39942056 -66.18359375 91.7890625 C-76.95671449 82.73505677 -84.45107532 70.76865158 -86.62890625 56.75390625 C-87.70406455 38.84635159 -84.34536439 23.61341627 -72.50390625 9.56640625 C-53.91183427 -10.05509253 -23.01849213 -15.08108105 0 0 Z M-26.62890625 12.75390625 C-26.62890625 14.40390625 -26.62890625 16.05390625 -26.62890625 17.75390625 C-30.91890625 17.75390625 -35.20890625 17.75390625 -39.62890625 17.75390625 C-39.62890625 19.73390625 -39.62890625 21.71390625 -39.62890625 23.75390625 C-35.33890625 23.75390625 -31.04890625 23.75390625 -26.62890625 23.75390625 C-25.89654661 33.76282127 -25.89654661 33.76282127 -28 36.609375 C-28.55816406 37.09019531 -29.11632812 37.57101563 -29.69140625 38.06640625 C-30.66078125 38.95328125 -31.63015625 39.84015625 -32.62890625 40.75390625 C-32.66483783 44.05575553 -32.66483783 44.05575553 -31.62890625 46.75390625 C-28.56115114 45.32959138 -26.41850526 43.84610551 -23.62890625 41.75390625 C-22.63890625 45.38390625 -21.64890625 49.01390625 -20.62890625 52.75390625 C-22.93890625 53.41390625 -25.24890625 54.07390625 -27.62890625 54.75390625 C-26.96890625 56.73390625 -26.30890625 58.71390625 -25.62890625 60.75390625 C-21.91002386 60.24678592 -18.89436386 59.6378241 -15.62890625 57.75390625 C-14.96890625 59.07390625 -14.30890625 60.39390625 -13.62890625 61.75390625 C-12.30890625 61.75390625 -10.98890625 61.75390625 -9.62890625 61.75390625 C-8.96890625 60.43390625 -8.30890625 59.11390625 -7.62890625 57.75390625 C-8.61890625 56.76390625 -9.60890625 55.77390625 -10.62890625 54.75390625 C-9.25330779 51.77012021 -7.62474304 49.37036221 -5.56640625 46.81640625 C-3.27331174 43.83147788 -1.87033919 41.61683332 -1.62890625 37.75390625 C-0.63890625 38.41390625 0.35109375 39.07390625 1.37109375 39.75390625 C2.37541649 45.86845939 1.8072424 50.59968328 -1.62890625 55.75390625 C-0.93750274 58.05678418 -0.93750274 58.05678418 0.37109375 59.75390625 C1.36109375 59.75390625 2.35109375 59.75390625 3.37109375 59.75390625 C8.54961773 54.11845368 8.76347621 49.34376938 8.73046875 41.93359375 C8.20852677 37.31554186 6.80432873 35.77842278 3.37109375 32.75390625 C1.37109375 30.75390625 1.37109375 30.75390625 1.24609375 28.12890625 C1.28734375 27.34515625 1.32859375 26.56140625 1.37109375 25.75390625 C-0.60890625 25.75390625 -2.58890625 25.75390625 -4.62890625 25.75390625 C-4.95890625 27.07390625 -5.28890625 28.39390625 -5.62890625 29.75390625 C-6.54414062 29.81449219 -7.459375 29.87507813 -8.40234375 29.9375 C-9.59085938 30.02128906 -10.779375 30.10507812 -12.00390625 30.19140625 C-13.77894531 30.31322266 -13.77894531 30.31322266 -15.58984375 30.4375 C-18.54409526 30.56475561 -18.54409526 30.56475561 -20.62890625 31.75390625 C-20.62890625 28.78390625 -20.62890625 25.81390625 -20.62890625 22.75390625 C-19.93667969 22.8003125 -19.24445313 22.84671875 -18.53125 22.89453125 C-9.84999633 23.2147883 -1.73191453 21.95443396 6.37109375 18.75390625 C6.70109375 17.76390625 7.03109375 16.77390625 7.37109375 15.75390625 C6.71109375 14.76390625 6.05109375 13.77390625 5.37109375 12.75390625 C4.48808594 12.95886719 3.60507813 13.16382812 2.6953125 13.375 C-4.05420862 14.89019862 -10.61098984 16.11373985 -17.51953125 16.54296875 C-19.68371933 16.6329814 -19.68371933 16.6329814 -21.62890625 17.75390625 C-21.62890625 16.10390625 -21.62890625 14.45390625 -21.62890625 12.75390625 C-23.27890625 12.75390625 -24.92890625 12.75390625 -26.62890625 12.75390625 Z M-52.62890625 32.75390625 C-55.20011719 38.5345952 -57.76272415 44.31904081 -60.31933594 50.10620117 C-61.19039605 52.07518026 -62.06343473 54.04328526 -62.93847656 56.01049805 C-64.19464848 58.83546063 -65.44371154 61.66347249 -66.69140625 64.4921875 C-67.08513428 65.37352859 -67.4788623 66.25486969 -67.88452148 67.16291809 C-68.24489502 67.98354233 -68.60526855 68.80416656 -68.9765625 69.6496582 C-69.29633057 70.37135696 -69.61609863 71.09305573 -69.94555664 71.83662415 C-70.79677072 73.88564879 -70.79677072 73.88564879 -70.62890625 76.75390625 C-68.31890625 76.75390625 -66.00890625 76.75390625 -63.62890625 76.75390625 C-61.15390625 71.80390625 -61.15390625 71.80390625 -58.62890625 66.75390625 C-52.35890625 66.75390625 -46.08890625 66.75390625 -39.62890625 66.75390625 C-37.97890625 70.05390625 -36.32890625 73.35390625 -34.62890625 76.75390625 C-32.31890625 76.75390625 -30.00890625 76.75390625 -27.62890625 76.75390625 C-28.31057564 71.70598848 -30.40036573 67.34783983 -32.4453125 62.734375 C-33.00918922 61.44651848 -33.00918922 61.44651848 -33.5844574 60.13264465 C-34.78212328 57.40016275 -35.98665918 54.67077239 -37.19140625 51.94140625 C-38.00631482 50.08548637 -38.82077316 48.22936873 -39.63476562 46.37304688 C-41.62760194 41.83102492 -43.62660365 37.29176257 -45.62890625 32.75390625 C-47.93890625 32.75390625 -50.24890625 32.75390625 -52.62890625 32.75390625 Z " fill="#FFFFFF" transform="translate(94.62890625,16.24609375)"/>
<path d="M0 0 C2.33088789 2.87854637 3.83224797 5.61984828 5.1875 9.0625 C5.53167969 9.91972656 5.87585937 10.77695313 6.23046875 11.66015625 C7 14 7 14 7 17 C2.71 17 -1.58 17 -6 17 C-5.19980115 12.19880692 -4.45116558 9.35886096 -2.4375 5.125 C-1.75494141 3.67480469 -1.75494141 3.67480469 -1.05859375 2.1953125 C-0.70925781 1.47085938 -0.35992187 0.74640625 0 0 Z " fill="#FFFFFF" transform="translate(45,59)"/>
<path d="M0 0 C-1.45177445 4.11336093 -3.38124858 7.50833145 -6 11 C-6.99 11.33 -7.98 11.66 -9 12 C-9.99 8.7 -10.98 5.4 -12 2 C-7.8794254 0.00214565 -4.54805635 -0.17835515 0 0 Z " fill="#FFFFFF" transform="translate(88,52)"/>
</svg>
